  0
SECTION
  2
HEADER
  9
$ACADVER
  1
AC1018
  9
$ACADMAINTVER
 70
     0
  9
$DWGCODEPAGE
  3
ANSI_949
  9
$INSBASE
 10
0.0
 20
0.0
 30
0.0
  9
$EXTMIN
 10
-0.0000133756548166
 20
-0.0000070445239624
 30
0.0
  9
$EXTMAX
 10
8836.60629689507
 20
4213.805135185364
 30
338.8460519809347
  9
$LIMMIN
 10
0.0
 20
0.0
  9
$LIMMAX
 10
420.0
 20
297.0
  9
$ORTHOMODE
 70
     0
  9
$REGENMODE
 70
     1
  9
$FILLMODE
 70
     1
  9
$QTEXTMODE
 70
     0
  9
$MIRRTEXT
 70
     0
  9
$LTSCALE
 40
1.0
  9
$ATTMODE
 70
     1
  9
$TEXTSIZE
 40
2.5
  9
$TRACEWID
 40
1.0
  9
$TEXTSTYLE
  7
STANDARD
  9
$CLAYER
  8
0
  9
$CELTYPE
  6
ByLayer
  9
$CECOLOR
 62
   256
  9
$CELTSCALE
 40
1.0
  9
$DISPSILH
 70
     0
  9
$DIMSCALE
 40
1.0
  9
$DIMASZ
 40
2.5
  9
$DIMEXO
 40
0.625
  9
$DIMDLI
 40
3.75
  9
$DIMRND
 40
0.0
  9
$DIMDLE
 40
0.0
  9
$DIMEXE
 40
1.25
  9
$DIMTP
 40
0.0
  9
$DIMTM
 40
0.0
  9
$DIMTXT
 40
2.5
  9
$DIMCEN
 40
2.5
  9
$DIMTSZ
 40
0.0
  9
$DIMTOL
 70
     0
  9
$DIMLIM
 70
     0
  9
$DIMTIH
 70
     0
  9
$DIMTOH
 70
     0
  9
$DIMSE1
 70
     0
  9
$DIMSE2
 70
     0
  9
$DIMTAD
 70
     1
  9
$DIMZIN
 70
     8
  9
$DIMBLK
  1

  9
$DIMASO
 70
     1
  9
$DIMSHO
 70
     1
  9
$DIMPOST
  1

  9
$DIMAPOST
  1

  9
$DIMALT
 70
     0
  9
$DIMALTD
 70
     3
  9
$DIMALTF
 40
0.03937007874016
  9
$DIMLFAC
 40
1.0
  9
$DIMTOFL
 70
     1
  9
$DIMTVP
 40
0.0
  9
$DIMTIX
 70
     0
  9
$DIMSOXD
 70
     0
  9
$DIMSAH
 70
     0
  9
$DIMBLK1
  1

  9
$DIMBLK2
  1

  9
$DIMSTYLE
  2
ISO-25
  9
$DIMCLRD
 70
     0
  9
$DIMCLRE
 70
     0
  9
$DIMCLRT
 70
     0
  9
$DIMTFAC
 40
1.0
  9
$DIMGAP
 40
0.625
  9
$DIMJUST
 70
     0
  9
$DIMSD1
 70
     0
  9
$DIMSD2
 70
     0
  9
$DIMTOLJ
 70
     1
  9
$DIMTZIN
 70
     0
  9
$DIMALTZ
 70
     0
  9
$DIMALTTZ
 70
     0
  9
$DIMUPT
 70
     0
  9
$DIMDEC
 70
     4
  9
$DIMTDEC
 70
     4
  9
$DIMALTU
 70
     2
  9
$DIMALTTD
 70
     2
  9
$DIMTXSTY
  7
STANDARD
  9
$DIMAUNIT
 70
     0
  9
$DIMADEC
 70
     0
  9
$DIMALTRND
 40
0.0
  9
$DIMAZIN
 70
     0
  9
$DIMDSEP
 70
    46
  9
$DIMATFIT
 70
     3
  9
$DIMFRAC
 70
     0
  9
$DIMLDRBLK
  1

  9
$DIMLUNIT
 70
     2
  9
$DIMLWD
 70
    -2
  9
$DIMLWE
 70
    -2
  9
$DIMTMOVE
 70
     0
  9
$LUNITS
 70
     2
  9
$LUPREC
 70
     4
  9
$SKETCHINC
 40
1.0
  9
$FILLETRAD
 40
0.0
  9
$AUNITS
 70
     0
  9
$AUPREC
 70
     0
  9
$MENU
  1
.
  9
$ELEVATION
 40
0.0
  9
$PELEVATION
 40
0.0
  9
$THICKNESS
 40
0.0
  9
$LIMCHECK
 70
     0
  9
$CHAMFERA
 40
0.0
  9
$CHAMFERB
 40
0.0
  9
$CHAMFERC
 40
0.0
  9
$CHAMFERD
 40
0.0
  9
$SKPOLY
 70
     0
  9
$TDCREATE
 40
2453630.465409248
  9
$TDUCREATE
 40
2453630.090409248
  9
$TDUPDATE
 40
2457785.431725706
  9
$TDUUPDATE
 40
2457785.056725706
  9
$TDINDWG
 40
0.0089932870
  9
$TDUSRTIMER
 40
0.0089925347
  9
$USRTIMER
 70
     1
  9
$ANGBASE
 50
0.0
  9
$ANGDIR
 70
     0
  9
$PDMODE
 70
     0
  9
$PDSIZE
 40
0.0
  9
$PLINEWID
 40
0.0
  9
$SPLFRAME
 70
     0
  9
$SPLINETYPE
 70
     6
  9
$SPLINESEGS
 70
     8
  9
$HANDSEED
  5
76B
  9
$SURFTAB1
 70
     6
  9
$SURFTAB2
 70
     6
  9
$SURFTYPE
 70
     6
  9
$SURFU
 70
     6
  9
$SURFV
 70
     6
  9
$UCSBASE
  2

  9
$UCSNAME
  2

  9
$UCSORG
 10
0.0
 20
0.0
 30
0.0
  9
$UCSXDIR
 10
1.0
 20
0.0
 30
0.0
  9
$UCSYDIR
 10
0.0
 20
1.0
 30
0.0
  9
$UCSORTHOREF
  2

  9
$UCSORTHOVIEW
 70
     0
  9
$UCSORGTOP
 10
0.0
 20
0.0
 30
0.0
  9
$UCSORGBOTTOM
 10
0.0
 20
0.0
 30
0.0
  9
$UCSORGLEFT
 10
0.0
 20
0.0
 30
0.0
  9
$UCSORGRIGHT
 10
0.0
 20
0.0
 30
0.0
  9
$UCSORGFRONT
 10
0.0
 20
0.0
 30
0.0
  9
$UCSORGBACK
 10
0.0
 20
0.0
 30
0.0
  9
$PUCSBASE
  2

  9
$PUCSNAME
  2

  9
$PUCSORG
 10
0.0
 20
0.0
 30
0.0
  9
$PUCSXDIR
 10
1.0
 20
0.0
 30
0.0
  9
$PUCSYDIR
 10
0.0
 20
1.0
 30
0.0
  9
$PUCSORTHOREF
  2

  9
$PUCSORTHOVIEW
 70
     0
  9
$PUCSORGTOP
 10
0.0
 20
0.0
 30
0.0
  9
$PUCSORGBOTTOM
 10
0.0
 20
0.0
 30
0.0
  9
$PUCSORGLEFT
 10
0.0
 20
0.0
 30
0.0
  9
$PUCSORGRIGHT
 10
0.0
 20
0.0
 30
0.0
  9
$PUCSORGFRONT
 10
0.0
 20
0.0
 30
0.0
  9
$PUCSORGBACK
 10
0.0
 20
0.0
 30
0.0
  9
$USERI1
 70
     0
  9
$USERI2
 70
     0
  9
$USERI3
 70
     0
  9
$USERI4
 70
     0
  9
$USERI5
 70
     0
  9
$USERR1
 40
0.0
  9
$USERR2
 40
0.0
  9
$USERR3
 40
0.0
  9
$USERR4
 40
0.0
  9
$USERR5
 40
0.0
  9
$WORLDVIEW
 70
     1
  9
$SHADEDGE
 70
     3
  9
$SHADEDIF
 70
    70
  9
$TILEMODE
 70
     1
  9
$MAXACTVP
 70
    64
  9
$PINSBASE
 10
0.0
 20
0.0
 30
0.0
  9
$PLIMCHECK
 70
     0
  9
$PEXTMIN
 10
0.0
 20
0.0
 30
0.0
  9
$PEXTMAX
 10
0.0
 20
0.0
 30
0.0
  9
$PLIMMIN
 10
0.0
 20
0.0
  9
$PLIMMAX
 10
12.0
 20
9.0
  9
$UNITMODE
 70
     0
  9
$VISRETAIN
 70
     1
  9
$PLINEGEN
 70
     0
  9
$PSLTSCALE
 70
     1
  9
$TREEDEPTH
 70
  3020
  9
$CMLSTYLE
  2
Standard
  9
$CMLJUST
 70
     0
  9
$CMLSCALE
 40
1.0
  9
$PROXYGRAPHICS
 70
     1
  9
$MEASUREMENT
 70
     0
  9
$CELWEIGHT
370
    -1
  9
$ENDCAPS
280
     0
  9
$JOINSTYLE
280
     0
  9
$LWDISPLAY
290
     0
  9
$INSUNITS
 70
     0
  9
$HYPERLINKBASE
  1

  9
$STYLESHEET
  1

  9
$XEDIT
290
     1
  9
$CEPSNTYPE
380
     0
  9
$PSTYLEMODE
290
     1
  9
$FINGERPRINTGUID
  2
{B5117CF2-D7C3-4A3D-AF71-9812FDBA12D5}
  9
$VERSIONGUID
  2
{5353EEFE-49EA-4179-97B8-CDE252D8F9AB}
  9
$EXTNAMES
290
     1
  9
$PSVPSCALE
 40
0.0
  9
$OLESTARTUP
290
     0
  9
$SORTENTS
280
   127
  9
$INDEXCTL
280
     0
  9
$HIDETEXT
280
     0
  9
$XCLIPFRAME
290
     0
  9
$HALOGAP
280
     0
  9
$OBSCOLOR
 70
   257
  9
$OBSLTYPE
280
     0
  9
$INTERSECTIONDISPLAY
280
     0
  9
$INTERSECTIONCOLOR
 70
   257
  9
$DIMASSOC
280
     1
  9
$PROJECTNAME
  1

  0
ENDSEC
  0
SECTION
  2
CLASSES
  0
CLASS
  1
ACDBDICTIONARYWDFLT
  2
AcDbDictionaryWithDefault
  3
ObjectDBX Classes
 90
        0
 91
        1
280
     0
281
     0
  0
ENDSEC
  0
SECTION
  2
TABLES
  0
TABLE
  2
VPORT
  5
708
330
0
100
AcDbSymbolTable
 70
     2
  0
VPORT
  5
76A
330
708
100
AcDbSymbolTableRecord
100
AcDbViewportTableRecord
  2
*Active
 70
     0
 10
0.0
 20
0.0
 11
1.0
 21
1.0
 12
2117.974596566174
 22
4197.943652896991
 13
0.0
 23
0.0
 14
10.0
 24
10.0
 15
10.0
 25
10.0
 16
0.0
 26
0.0
 36
1.0
 17
0.0
 27
0.0
 37
0.0
 40
13861.55389248387
 41
1.614754098360655
 42
50.0
 43
0.0
 44
0.0
 50
0.0
 51
0.0
 71
     0
 72
  1000
 73
     1
 74
     3
 75
     0
 76
     0
 77
     0
 78
     0
281
     0
 65
     1
110
0.0
120
0.0
130
0.0
111
1.0
121
0.0
131
0.0
112
0.0
122
1.0
132
0.0
 79
     0
146
0.0
  0
ENDTAB
  0
TABLE
  2
LTYPE
  5
705
330
0
100
AcDbSymbolTable
 70
     1
  0
LTYPE
  5
713
330
705
100
AcDbSymbolTableRecord
100
AcDbLinetypeTableRecord
  2
ByBlock
 70
     0
  3

 72
    65
 73
     0
 40
0.0
  0
LTYPE
  5
714
330
705
100
AcDbSymbolTableRecord
100
AcDbLinetypeTableRecord
  2
ByLayer
 70
     0
  3

 72
    65
 73
     0
 40
0.0
  0
LTYPE
  5
715
330
705
100
AcDbSymbolTableRecord
100
AcDbLinetypeTableRecord
  2
CONTINUOUS
 70
     0
  3
Solid line
 72
    65
 73
     0
 40
0.0
  0
ENDTAB
  0
TABLE
  2
LAYER
  5
702
330
0
100
AcDbSymbolTable
 70
    12
  0
LAYER
  5
710
330
702
100
AcDbSymbolTableRecord
100
AcDbLayerTableRecord
  2
0
 70
     0
 62
     7
  6
CONTINUOUS
370
    -3
390
70F
  0
LAYER
  5
725
330
702
100
AcDbSymbolTableRecord
100
AcDbLayerTableRecord
  2
DIM1
 70
     0
 62
     7
  6
CONTINUOUS
370
    -3
390
70F
  0
LAYER
  5
726
330
702
100
AcDbSymbolTableRecord
100
AcDbLayerTableRecord
  2
BAR1
 70
     0
 62
     4
  6
CONTINUOUS
370
    -3
390
70F
  0
LAYER
  5
727
330
702
100
AcDbSymbolTableRecord
100
AcDbLayerTableRecord
  2
T25
 70
     0
 62
     3
  6
CONTINUOUS
370
    -3
390
70F
  0
LAYER
  5
728
330
702
100
AcDbSymbolTableRecord
100
AcDbLayerTableRecord
  2
MAINSTRUCT
 70
     0
 62
     2
  6
CONTINUOUS
370
    -3
390
70F
  0
LAYER
  5
729
330
702
100
AcDbSymbolTableRecord
100
AcDbLayerTableRecord
  2
LINE_GDIM
 70
     0
 62
     2
  6
CONTINUOUS
370
    -3
390
70F
  0
LAYER
  5
72A
330
702
100
AcDbSymbolTableRecord
100
AcDbLayerTableRecord
  2
CS-DIML
 70
     0
 62
     1
  6
CONTINUOUS
370
    -3
390
70F
  0
LAYER
  5
72B
330
702
100
AcDbSymbolTableRecord
100
AcDbLayerTableRecord
  2
CS-CONC
 70
     0
 62
     4
  6
CONTINUOUS
370
    -3
390
70F
  0
LAYER
  5
72C
330
702
100
AcDbSymbolTableRecord
100
AcDbLayerTableRecord
  2
CS-BARC
 70
     0
 62
     6
  6
CONTINUOUS
370
    -3
390
70F
  0
LAYER
  5
72D
330
702
100
AcDbSymbolTableRecord
100
AcDbLayerTableRecord
  2
CS-TBTC
 70
     0
 62
     1
  6
CONTINUOUS
370
    -3
390
70F
  0
LAYER
  5
72E
330
702
100
AcDbSymbolTableRecord
100
AcDbLayerTableRecord
  2
CS-BARX
 70
     0
 62
     2
  6
CONTINUOUS
370
    -3
390
70F
  0
LAYER
  5
72F
330
702
100
AcDbSymbolTableRecord
100
AcDbLayerTableRecord
  2
CS-HATH
 70
     0
 62
     2
  6
CONTINUOUS
370
    -3
390
70F
  0
ENDTAB
  0
TABLE
  2
STYLE
  5
703
330
0
100
AcDbSymbolTable
 70
     4
  0
STYLE
  5
711
330
703
100
AcDbSymbolTableRecord
100
AcDbTextStyleTableRecord
  2
STANDARD
 70
     0
 40
0.0
 41
1.0
 50
0.0
 71
     0
 42
2.5
  3
txt
  4

  0
STYLE
  5
730
330
703
100
AcDbSymbolTableRecord
100
AcDbTextStyleTableRecord
  2
ANNOTATIVE
 70
     0
 40
0.0
 41
1.0
 50
0.0
 71
     0
 42
0.2
  3
txt
  4

  0
STYLE
  5
731
330
703
100
AcDbSymbolTableRecord
100
AcDbTextStyleTableRecord
  2
GHS
 70
     0
 40
0.0
 41
1.0
 50
0.0
 71
     0
 42
270.0
  3
romans.shx
  4
whgtxt.shx
  0
STYLE
  5
732
330
703
100
AcDbSymbolTableRecord
100
AcDbTextStyleTableRecord
  2
TEXT_TBLT
 70
     0
 40
0.125
 41
1.0
 50
0.0
 71
     0
 42
0.2
  3
txt
  4

  0
ENDTAB
  0
TABLE
  2
VIEW
  5
706
330
0
100
AcDbSymbolTable
 70
     0
  0
ENDTAB
  0
TABLE
  2
UCS
  5
707
330
0
100
AcDbSymbolTable
 70
     0
  0
ENDTAB
  0
TABLE
  2
APPID
  5
709
330
0
100
AcDbSymbolTable
 70
     8
  0
APPID
  5
712
330
709
100
AcDbSymbolTableRecord
100
AcDbRegAppTableRecord
  2
ACAD
 70
     0
  0
APPID
  5
733
330
709
100
AcDbSymbolTableRecord
100
AcDbRegAppTableRecord
  2
ACADANNOTATIVE
 70
     0
  0
APPID
  5
734
330
709
100
AcDbSymbolTableRecord
100
AcDbRegAppTableRecord
  2
RAK
 70
     0
  0
APPID
  5
735
330
709
100
AcDbSymbolTableRecord
100
AcDbRegAppTableRecord
  2
ADE
 70
     0
  0
APPID
  5
736
330
709
100
AcDbSymbolTableRecord
100
AcDbRegAppTableRecord
  2
VD_EXTRASTYLE
 70
     0
  0
APPID
  5
737
330
709
100
AcDbSymbolTableRecord
100
AcDbRegAppTableRecord
  2
ACAD_NAV_VCDISPLAY
 70
     0
  0
APPID
  5
738
330
709
100
AcDbSymbolTableRecord
100
AcDbRegAppTableRecord
  2
ACAD_MLEADERVER
 70
     0
  0
APPID
  5
739
330
709
100
AcDbSymbolTableRecord
100
AcDbRegAppTableRecord
  2
CONTENTBLOCKICON
 70
     0
  0
ENDTAB
  0
TABLE
  2
DIMSTYLE
  5
70A
330
0
100
AcDbSymbolTable
 70
     4
100
AcDbDimStyleTable
 71
     0
  0
DIMSTYLE
105
73A
330
70A
100
AcDbSymbolTableRecord
100
AcDbDimStyleTableRecord
  2
STANDARD
 70
     0
274
     3
279
     2
284
     8
285
     8
286
     8
340
711
  0
DIMSTYLE
105
73B
330
70A
100
AcDbSymbolTableRecord
100
AcDbDimStyleTableRecord
  2
ANNOTATIVE
 70
     0
274
     3
279
     2
284
     8
285
     8
286
     8
340
711
  0
DIMSTYLE
105
73C
330
70A
100
AcDbSymbolTableRecord
100
AcDbDimStyleTableRecord
  2
ISO-25
 70
     0
 41
2.5
 42
0.625
 43
3.75
 44
1.25
 73
     0
 74
     0
 77
     1
 78
     8
140
2.5
141
2.5
143
0.03937007874016
147
0.625
171
     3
172
     1
274
     3
279
     2
284
     8
285
     8
286
     8
340
711
  0
DIMSTYLE
105
73D
330
70A
100
AcDbSymbolTableRecord
100
AcDbDimStyleTableRecord
  2
GHS
 70
     0
 40
400.0
 41
1.0
 42
0.0
 43
0.3
 44
1.0
 73
     0
 74
     0
 77
     1
140
3.0
141
0.0
144
0.001
147
1.25
172
     1
174
     1
176
     1
177
     1
178
     4
274
     3
279
     2
284
     8
285
     8
286
     8
340
711
  0
ENDTAB
  0
TABLE
  2
BLOCK_RECORD
  5
701
330
0
100
AcDbSymbolTable
 70
    20
  0
BLOCK_RECORD
  5
720
330
701
100
AcDbSymbolTableRecord
100
AcDbBlockTableRecord
  2
*Model_Space
340
723
  0
BLOCK_RECORD
  5
71C
330
701
100
AcDbSymbolTableRecord
100
AcDbBlockTableRecord
  2
*Paper_Space
340
71F
  0
BLOCK_RECORD
  5
741
330
701
100
AcDbSymbolTableRecord
100
AcDbBlockTableRecord
  2
$MODEL_SPACE
340
0
  0
BLOCK_RECORD
  5
743
330
701
100
AcDbSymbolTableRecord
100
AcDbBlockTableRecord
  2
$PAPER_SPACE
340
0
  0
BLOCK_RECORD
  5
745
330
701
100
AcDbSymbolTableRecord
100
AcDbBlockTableRecord
  2
DOT
340
0
  0
BLOCK_RECORD
  5
747
330
701
100
AcDbSymbolTableRecord
100
AcDbBlockTableRecord
  2
_DOT
340
0
  0
BLOCK_RECORD
  5
749
330
701
100
AcDbSymbolTableRecord
100
AcDbBlockTableRecord
  2
_DOTSMALL
340
0
102
{BLKREFS
331
65B
331
65E
331
660
331
661
102
}
  0
BLOCK_RECORD
  5
74B
330
701
100
AcDbSymbolTableRecord
100
AcDbBlockTableRecord
  2
*U5
340
0
  0
BLOCK_RECORD
  5
74D
330
701
100
AcDbSymbolTableRecord
100
AcDbBlockTableRecord
  2
*U6
340
0
  0
BLOCK_RECORD
  5
74F
330
701
100
AcDbSymbolTableRecord
100
AcDbBlockTableRecord
  2
*U7
340
0
  0
BLOCK_RECORD
  5
751
330
701
100
AcDbSymbolTableRecord
100
AcDbBlockTableRecord
  2
*U8
340
0
  0
BLOCK_RECORD
  5
753
330
701
100
AcDbSymbolTableRecord
100
AcDbBlockTableRecord
  2
*X9
340
0
  0
BLOCK_RECORD
  5
755
330
701
100
AcDbSymbolTableRecord
100
AcDbBlockTableRecord
  2
*X10
340
0
  0
BLOCK_RECORD
  5
757
330
701
100
AcDbSymbolTableRecord
100
AcDbBlockTableRecord
  2
*X11
340
0
  0
BLOCK_RECORD
  5
759
330
701
100
AcDbSymbolTableRecord
100
AcDbBlockTableRecord
  2
*U12
340
0
  0
BLOCK_RECORD
  5
75B
330
701
100
AcDbSymbolTableRecord
100
AcDbBlockTableRecord
  2
*U13
340
0
  0
BLOCK_RECORD
  5
75D
330
701
100
AcDbSymbolTableRecord
100
AcDbBlockTableRecord
  2
*X14
340
0
102
{BLKREFS
331
6B4
102
}
  0
BLOCK_RECORD
  5
75F
330
701
100
AcDbSymbolTableRecord
100
AcDbBlockTableRecord
  2
*X15
340
0
102
{BLKREFS
331
689
102
}
  0
BLOCK_RECORD
  5
761
330
701
100
AcDbSymbolTableRecord
100
AcDbBlockTableRecord
  2
*X16
340
0
102
{BLKREFS
331
674
102
}
  0
BLOCK_RECORD
  5
763
330
701
100
AcDbSymbolTableRecord
100
AcDbBlockTableRecord
  2
*U17
340
0
102
{BLKREFS
331
65D
102
}
  0
BLOCK_RECORD
  5
765
330
701
100
AcDbSymbolTableRecord
100
AcDbBlockTableRecord
  2
*U18
340
0
102
{BLKREFS
331
659
102
}
  0
BLOCK_RECORD
  5
767
330
701
100
AcDbSymbolTableRecord
100
AcDbBlockTableRecord
  2
BLOCK_SHEAR_DETAIL
340
0
102
{BLKREFS
331
6EC
102
}
  0
ENDTAB
  0
ENDSEC
  0
SECTION
  2
BLOCKS
  0
BLOCK
  5
721
330
720
100
AcDbEntity
  8
0
100
AcDbBlockBegin
  2
*Model_Space
 70
     0
 10
0.0
 20
0.0
 30
0.0
  3
*Model_Space
  1

  0
ENDBLK
  5
722
330
720
100
AcDbEntity
  8
0
100
AcDbBlockEnd
  0
BLOCK
  5
71D
330
71C
100
AcDbEntity
 67
     1
  8
0
100
AcDbBlockBegin
  2
*Paper_Space
 70
     0
 10
0.0
 20
0.0
 30
0.0
  3
*Paper_Space
  1

  0
ENDBLK
  5
71E
330
71C
100
AcDbEntity
 67
     1
  8
0
100
AcDbBlockEnd
  0
BLOCK
  5
742
330
741
100
AcDbEntity
  8
0
100
AcDbBlockBegin
  2
$MODEL_SPACE
 70
     0
 10
0.0
 20
0.0
 30
0.0
  3
$MODEL_SPACE
  1

  0
ENDBLK
  5
5AC
330
741
100
AcDbEntity
  8
0
100
AcDbBlockEnd
  0
BLOCK
  5
744
330
743
100
AcDbEntity
  8
0
100
AcDbBlockBegin
  2
$PAPER_SPACE
 70
     0
 10
0.0
 20
0.0
 30
0.0
  3
$PAPER_SPACE
  1

  0
ENDBLK
  5
5A8
330
743
100
AcDbEntity
  8
0
100
AcDbBlockEnd
  0
BLOCK
  5
746
330
745
100
AcDbEntity
  8
0
100
AcDbBlockBegin
  2
DOT
 70
     0
 10
0.0
 20
0.0
 30
0.0
  3
DOT
  1

  0
LWPOLYLINE
  5
88
330
745
100
AcDbEntity
  8
0
 62
     7
100
AcDbPolyline
 90
        2
 70
     1
 43
0.5
 10
-0.25
 20
0.0
 42
1.0
 10
0.25
 20
0.0
 42
1.0
  0
LINE
  5
89
330
745
100
AcDbEntity
  8
0
 62
     1
100
AcDbLine
 10
0.0
 20
0.0
 30
0.0
 11
-1.0
 21
0.0
 31
0.0
  0
ENDBLK
  5
8A
330
745
100
AcDbEntity
  8
0
100
AcDbBlockEnd
  0
BLOCK
  5
748
330
747
100
AcDbEntity
  8
0
100
AcDbBlockBegin
  2
_DOT
 70
     0
 10
0.0
 20
0.0
 30
0.0
  3
_DOT
  1

  0
LWPOLYLINE
  5
8D
330
747
100
AcDbEntity
  8
0
  6
ByBlock
 62
     0
100
AcDbPolyline
 90
        2
 70
     1
 43
0.5
 10
-0.25
 20
0.0
 42
1.0
 10
0.25
 20
0.0
 42
1.0
  0
LINE
  5
8E
330
747
100
AcDbEntity
  8
0
  6
ByBlock
 62
     0
100
AcDbLine
 10
-0.5
 20
0.0
 30
0.0
 11
-1.0
 21
0.0
 31
0.0
  0
ENDBLK
  5
8F
330
747
100
AcDbEntity
  8
0
100
AcDbBlockEnd
  0
BLOCK
  5
74A
330
749
100
AcDbEntity
  8
0
100
AcDbBlockBegin
  2
_DOTSMALL
 70
     0
 10
0.0
 20
0.0
 30
0.0
  3
_DOTSMALL
  1

  0
LWPOLYLINE
  5
92
330
749
100
AcDbEntity
  8
0
  6
ByBlock
 62
     0
100
AcDbPolyline
 90
        2
 70
     1
 43
0.5
 10
-0.0625
 20
0.0
 42
1.0
 10
0.0625
 20
0.0
 42
1.0
  0
ENDBLK
  5
93
330
749
100
AcDbEntity
  8
0
100
AcDbBlockEnd
  0
BLOCK
  5
74C
330
74B
100
AcDbEntity
  8
0
100
AcDbBlockBegin
  2
*U5
 70
     1
 10
0.0
 20
0.0
 30
0.0
  3
*U5
  1

  0
TEXT
  5
30F
330
74B
100
AcDbEntity
  8
0
 62
     2
100
AcDbText
 10
1902.261581739943
 20
3818.998454313725
 30
0.0
 40
135.0
  1
1.200
  7
GHS
100
AcDbText
  0
ENDBLK
  5
311
330
74B
100
AcDbEntity
  8
0
100
AcDbBlockEnd
  0
BLOCK
  5
74E
330
74D
100
AcDbEntity
  8
0
100
AcDbBlockBegin
  2
*U6
 70
     1
 10
0.0
 20
0.0
 30
0.0
  3
*U6
  1

  0
TEXT
  5
313
330
74D
100
AcDbEntity
  8
0
 62
     2
100
AcDbText
 10
4596.952985646203
 20
2108.304026099454
 30
0.0
 40
135.0
  1
1.000
 50
90.0
  7
GHS
100
AcDbText
  0
ENDBLK
  5
315
330
74D
100
AcDbEntity
  8
0
100
AcDbBlockEnd
  0
BLOCK
  5
750
330
74F
100
AcDbEntity
  8
0
100
AcDbBlockBegin
  2
*U7
 70
     1
 10
0.0
 20
0.0
 30
0.0
  3
*U7
  1

  0
TEXT
  5
317
330
74F
100
AcDbEntity
  8
0
 62
     2
100
AcDbText
 10
4596.952985646203
 20
1186.704026097964
 30
0.0
 40
135.0
  1
1.000
 50
90.0
  7
GHS
100
AcDbText
  0
ENDBLK
  5
319
330
74F
100
AcDbEntity
  8
0
100
AcDbBlockEnd
  0
BLOCK
  5
752
330
751
100
AcDbEntity
  8
0
100
AcDbBlockBegin
  2
*U8
 70
     1
 10
0.0
 20
0.0
 30
0.0
  3
*U8
  1

  0
TEXT
  5
31B
330
751
100
AcDbEntity
  8
0
 62
     2
100
AcDbText
 10
2823.861581741434
 20
3818.998454313725
 30
0.0
 40
135.0
  1
1.200
  7
GHS
100
AcDbText
  0
ENDBLK
  5
31D
330
751
100
AcDbEntity
  8
0
100
AcDbBlockEnd
  0
BLOCK
  5
754
330
753
100
AcDbEntity
  8
0
100
AcDbBlockBegin
  2
*X9
 70
     1
 10
0.0
 20
0.0
 30
0.0
  3
*X9
  1

  0
LINE
  5
33D
330
753
100
AcDbEntity
  8
0
 62
     0
100
AcDbLine
 10
1000.111861860674
 20
1433.000275923403
 30
0.0
 11
1001.444682965053
 21
1434.333097027782
 31
0.0
  0
LINE
  5
33E
330
753
100
AcDbEntity
  8
0
 62
     0
100
AcDbLine
 10
982.4341923310131
 20
1433.000275923405
 30
0.0
 11
1001.444682965053
 21
1452.010766557445
 31
0.0
  0
LINE
  5
33F
330
753
100
AcDbEntity
  8
0
 62
     0
100
AcDbLine
 10
964.7565228013514
 20
1433.000275923406
 30
0.0
 11
1001.444682965055
 21
1469.68843608711
 31
0.0
  0
LINE
  5
340
330
753
100
AcDbEntity
  8
0
 62
     0
100
AcDbLine
 10
947.078853271685
 20
1433.000275923405
 30
0.0
 11
1001.444682965055
 21
1487.366105616775
 31
0.0
  0
LINE
  5
341
330
753
100
AcDbEntity
  8
0
 62
     0
100
AcDbLine
 10
929.4011837420219
 20
1433.000275923405
 30
0.0
 11
1001.444682965053
 21
1505.043775146436
 31
0.0
  0
LINE
  5
342
330
753
100
AcDbEntity
  8
0
 62
     0
100
AcDbLine
 10
911.7235142123588
 20
1433.000275923406
 30
0.0
 11
1001.444682965053
 21
1522.721444676101
 31
0.0
  0
LINE
  5
343
330
753
100
AcDbEntity
  8
0
 62
     0
100
AcDbLine
 10
894.0458446826923
 20
1433.000275923403
 30
0.0
 11
1001.444682965053
 21
1540.399114205764
 31
0.0
  0
LINE
  5
344
330
753
100
AcDbEntity
  8
0
 62
     0
100
AcDbLine
 10
876.3681751530292
 20
1433.000275923405
 30
0.0
 11
1001.444682965055
 21
1558.076783735429
 31
0.0
  0
LINE
  5
345
330
753
100
AcDbEntity
  8
0
 62
     0
100
AcDbLine
 10
872.0262425601704
 20
1446.336012860206
 30
0.0
 11
988.108946051372
 21
1562.418716351409
 31
0.0
  0
LINE
  5
346
330
753
100
AcDbEntity
  8
0
 62
     0
100
AcDbLine
 10
868.0163843058831
 20
1460.003824135585
 30
0.0
 11
974.441134772436
 21
1566.428574602138
 31
0.0
  0
LINE
  5
347
330
753
100
AcDbEntity
  8
0
 62
     0
100
AcDbLine
 10
862.0057582447044
 20
1471.670867604069
 30
0.0
 11
962.7740913011763
 21
1572.439200660541
 31
0.0
  0
LINE
  5
348
330
753
100
AcDbEntity
  8
0
 62
     0
100
AcDbLine
 10
854.3292117860001
 20
1481.671990675029
 30
0.0
 11
952.7729682277604
 21
1580.11574711679
 31
0.0
  0
LINE
  5
349
330
753
100
AcDbEntity
  8
0
 62
     0
100
AcDbLine
 10
845.1019575702357
 20
1490.122405988928
 30
0.0
 11
944.3225529114583
 21
1589.343001330151
 31
0.0
  0
LINE
  5
34A
330
753
100
AcDbEntity
  8
0
 62
     0
100
AcDbLine
 10
834.2867524134327
 20
1496.984870361788
 30
0.0
 11
937.4600885360232
 21
1600.158206484379
 31
0.0
  0
LINE
  5
34B
330
753
100
AcDbEntity
  8
0
 62
     0
100
AcDbLine
 10
821.6735791612391
 20
1502.049366639259
 30
0.0
 11
932.3955922554686
 21
1612.771379733489
 31
0.0
  0
LINE
  5
34C
330
753
100
AcDbEntity
  8
0
 62
     0
100
AcDbLine
 10
806.7389677116223
 20
1504.792424719306
 30
0.0
 11
929.6525341711021
 21
1627.705991178785
 31
0.0
  0
LINE
  5
34D
330
753
100
AcDbEntity
  8
0
 62
     0
100
AcDbLine
 10
788.0434756756326
 20
1503.774602212981
 30
0.0
 11
930.6703566691666
 21
1646.401483206515
 31
0.0
  0
LINE
  5
34E
330
753
100
AcDbEntity
  8
0
 62
     0
100
AcDbLine
 10
988.2161253202085
 20
1703.947251857557
 30
0.0
 11
1001.444682965055
 21
1717.175809502403
 31
0.0
  0
LINE
  5
34F
330
753
100
AcDbEntity
  8
0
 62
     0
100
AcDbLine
 10
717.2691493860568
 20
1433.000275923405
 30
0.0
 11
730.4977070646927
 21
1446.228833602041
 31
0.0
  0
LINE
  5
350
330
753
100
AcDbEntity
  8
0
 62
     0
100
AcDbLine
 10
753.1273567410388
 20
1486.53615280805
 30
0.0
 11
947.9088058350894
 21
1681.317601902101
 31
0.0
  0
LINE
  5
351
330
753
100
AcDbEntity
  8
0
 62
     0
100
AcDbLine
 10
953.3000066246222
 20
1686.708802691633
 30
0.0
 11
1001.444682965053
 21
1734.853479032064
 31
0.0
  0
LINE
  5
352
330
753
100
AcDbEntity
  8
0
 62
     0
100
AcDbLine
 10
699.5914798563952
 20
1433.000275923406
 30
0.0
 11
747.7361564696217
 21
1481.144952536633
 31
0.0
  0
LINE
  5
353
330
753
100
AcDbEntity
  8
0
 62
     0
100
AcDbLine
 10
681.9138103267285
 20
1433.000275923403
 30
0.0
 11
1001.444682965053
 21
1752.531148561726
 31
0.0
  0
LINE
  5
354
330
753
100
AcDbEntity
  8
0
 62
     0
100
AcDbLine
 10
664.2361407970656
 20
1433.000275923403
 30
0.0
 11
1001.444682965055
 21
1770.208818091392
 31
0.0
  0
LINE
  5
355
330
753
100
AcDbEntity
  8
0
 62
     0
100
AcDbLine
 10
646.5584712674044
 20
1433.000275923406
 30
0.0
 11
1001.444682965053
 21
1787.886487621056
 31
0.0
  0
LINE
  5
356
330
753
100
AcDbEntity
  8
0
 62
     0
100
AcDbLine
 10
628.8808017377395
 20
1433.000275923405
 30
0.0
 11
1001.444682965055
 21
1805.56415715072
 31
0.0
  0
LINE
  5
357
330
753
100
AcDbEntity
  8
0
 62
     0
100
AcDbLine
 10
611.2031322080747
 20
1433.000275923405
 30
0.0
 11
1001.444682965055
 21
1823.241826680385
 31
0.0
  0
LINE
  5
358
330
753
100
AcDbEntity
  8
0
 62
     0
100
AcDbLine
 10
601.0993837453407
 20
1440.574196990334
 30
0.0
 11
993.8707618967292
 21
1833.345575141722
 31
0.0
  0
LINE
  5
359
330
753
100
AcDbEntity
  8
0
 62
     0
100
AcDbLine
 10
601.0993837453407
 20
1458.251866519997
 30
0.0
 11
976.1930923670622
 21
1833.345575141718
 31
0.0
  0
LINE
  5
35A
330
753
100
AcDbEntity
  8
0
 62
     0
100
AcDbLine
 10
601.0993837453423
 20
1475.929536049662
 30
0.0
 11
958.5154228373994
 21
1833.345575141718
 31
0.0
  0
LINE
  5
35B
330
753
100
AcDbEntity
  8
0
 62
     0
100
AcDbLine
 10
601.0993837453407
 20
1493.607205579326
 30
0.0
 11
940.8377533077382
 21
1833.345575141722
 31
0.0
  0
LINE
  5
35C
330
753
100
AcDbEntity
  8
0
 62
     0
100
AcDbLine
 10
601.0993837453423
 20
1511.284875108988
 30
0.0
 11
923.1600837780751
 21
1833.345575141722
 31
0.0
  0
LINE
  5
35D
330
753
100
AcDbEntity
  8
0
 62
     0
100
AcDbLine
 10
601.0993837453423
 20
1528.962544638654
 30
0.0
 11
905.4824142484083
 21
1833.34557514172
 31
0.0
  0
LINE
  5
35E
330
753
100
AcDbEntity
  8
0
 62
     0
100
AcDbLine
 10
671.198973774257
 20
1616.739804197232
 30
0.0
 11
817.7051546809924
 21
1763.245985103967
 31
0.0
  0
LINE
  5
35F
330
753
100
AcDbEntity
  8
0
 62
     0
100
AcDbLine
 10
871.3716233920187
 20
1816.912453814994
 30
0.0
 11
887.8047447187455
 21
1833.34557514172
 31
0.0
  0
LINE
  5
360
330
753
100
AcDbEntity
  8
0
 62
     0
100
AcDbLine
 10
601.0993837453423
 20
1546.640214168317
 30
0.0
 11
617.5325051097789
 21
1563.073335532754
 31
0.0
  0
LINE
  5
361
330
753
100
AcDbEntity
  8
0
 62
     0
100
AcDbLine
 10
673.0335147944368
 20
1636.252014747077
 30
0.0
 11
798.1929441411722
 21
1761.411444093812
 31
0.0
  0
LINE
  5
362
330
753
100
AcDbEntity
  8
0
 62
     0
100
AcDbLine
 10
670.7019215984546
 20
1651.598091080757
 30
0.0
 11
782.8468678123462
 21
1763.743037294649
 31
0.0
  0
LINE
  5
363
330
753
100
AcDbEntity
  8
0
 62
     0
100
AcDbLine
 10
665.9266984541992
 20
1664.500537466165
 30
0.0
 11
769.9444214303038
 21
1768.51826044227
 31
0.0
  0
LINE
  5
364
330
753
100
AcDbEntity
  8
0
 62
     0
100
AcDbLine
 10
659.3036983036236
 20
1675.555206845253
 30
0.0
 11
758.8897520539776
 21
1775.141260595606
 31
0.0
  0
LINE
  5
365
330
753
100
AcDbEntity
  8
0
 62
     0
100
AcDbLine
 10
651.074798850359
 20
1685.003976921653
 30
0.0
 11
749.4409819801095
 21
1783.370160051403
 31
0.0
  0
LINE
  5
366
330
753
100
AcDbEntity
  8
0
 62
     0
100
AcDbLine
 10
641.2988442828391
 20
1692.905691883796
 30
0.0
 11
741.5392670205217
 21
1793.146114621478
 31
0.0
  0
LINE
  5
367
330
753
100
AcDbEntity
  8
0
 62
     0
100
AcDbLine
 10
629.8841464466767
 20
1699.168663577298
 30
0.0
 11
735.2762953298662
 21
1804.560812460488
 31
0.0
  0
LINE
  5
368
330
753
100
AcDbEntity
  8
0
 62
     0
100
AcDbLine
 10
616.5363995347361
 20
1703.498586195022
 30
0.0
 11
730.9463727157126
 21
1817.908559375997
 31
0.0
  0
LINE
  5
369
330
753
100
AcDbEntity
  8
0
 62
     0
100
AcDbLine
 10
601.0993837453423
 20
1705.73923993529
 30
0.0
 11
728.7057189517708
 21
1833.345575141718
 31
0.0
  0
LINE
  5
36A
330
753
100
AcDbEntity
  8
0
 62
     0
100
AcDbLine
 10
601.0993837453423
 20
1723.416909464953
 30
0.0
 11
711.0280494221115
 21
1833.345575141722
 31
0.0
  0
LINE
  5
36B
330
753
100
AcDbEntity
  8
0
 62
     0
100
AcDbLine
 10
601.0993837453423
 20
1741.094578994618
 30
0.0
 11
693.3503798924447
 21
1833.34557514172
 31
0.0
  0
LINE
  5
36C
330
753
100
AcDbEntity
  8
0
 62
     0
100
AcDbLine
 10
601.0993837453423
 20
1758.772248524283
 30
0.0
 11
675.67271036278
 21
1833.34557514172
 31
0.0
  0
LINE
  5
36D
330
753
100
AcDbEntity
  8
0
 62
     0
100
AcDbLine
 10
601.0993837453407
 20
1776.449918053944
 30
0.0
 11
657.9950408331185
 21
1833.345575141722
 31
0.0
  0
LINE
  5
36E
330
753
100
AcDbEntity
  8
0
 62
     0
100
AcDbLine
 10
601.0993837453407
 20
1794.127587583607
 30
0.0
 11
640.317371303452
 21
1833.345575141718
 31
0.0
  0
LINE
  5
36F
330
753
100
AcDbEntity
  8
0
 62
     0
100
AcDbLine
 10
601.0993837453423
 20
1811.805257113272
 30
0.0
 11
622.6397017737889
 21
1833.345575141718
 31
0.0
  0
LINE
  5
370
330
753
100
AcDbEntity
  8
0
 62
     0
100
AcDbLine
 10
601.0993837453407
 20
1829.482926642935
 30
0.0
 11
604.9620322441276
 21
1833.345575141722
 31
0.0
  0
ENDBLK
  5
372
330
753
100
AcDbEntity
  8
0
100
AcDbBlockEnd
  0
BLOCK
  5
756
330
755
100
AcDbEntity
  8
0
100
AcDbBlockBegin
  2
*X10
 70
     1
 10
0.0
 20
0.0
 30
0.0
  3
*X10
  1

  0
LINE
  5
374
330
755
100
AcDbEntity
  8
0
 62
     0
100
AcDbLine
 10
7020.111861860676
 20
1433.000275923403
 30
0.0
 11
7021.444682965054
 21
1434.333097027782
 31
0.0
  0
LINE
  5
375
330
755
100
AcDbEntity
  8
0
 62
     0
100
AcDbLine
 10
7002.434192331013
 20
1433.000275923405
 30
0.0
 11
7021.444682965054
 21
1452.010766557445
 31
0.0
  0
LINE
  5
376
330
755
100
AcDbEntity
  8
0
 62
     0
100
AcDbLine
 10
6984.756522801351
 20
1433.000275923406
 30
0.0
 11
7021.444682965054
 21
1469.68843608711
 31
0.0
  0
LINE
  5
377
330
755
100
AcDbEntity
  8
0
 62
     0
100
AcDbLine
 10
6967.078853271684
 20
1433.000275923405
 30
0.0
 11
7021.444682965054
 21
1487.366105616775
 31
0.0
  0
LINE
  5
378
330
755
100
AcDbEntity
  8
0
 62
     0
100
AcDbLine
 10
6949.401183742022
 20
1433.000275923405
 30
0.0
 11
7021.444682965054
 21
1505.043775146436
 31
0.0
  0
LINE
  5
379
330
755
100
AcDbEntity
  8
0
 62
     0
100
AcDbLine
 10
6931.723514212361
 20
1433.000275923406
 30
0.0
 11
7021.444682965054
 21
1522.721444676101
 31
0.0
  0
LINE
  5
37A
330
755
100
AcDbEntity
  8
0
 62
     0
100
AcDbLine
 10
6914.045844682694
 20
1433.000275923403
 30
0.0
 11
7021.444682965054
 21
1540.399114205764
 31
0.0
  0
LINE
  5
37B
330
755
100
AcDbEntity
  8
0
 62
     0
100
AcDbLine
 10
6896.36817515303
 20
1433.000275923405
 30
0.0
 11
7021.444682965055
 21
1558.076783735429
 31
0.0
  0
LINE
  5
37C
330
755
100
AcDbEntity
  8
0
 62
     0
100
AcDbLine
 10
6892.026242560169
 20
1446.336012860206
 30
0.0
 11
7008.108946051371
 21
1562.418716351409
 31
0.0
  0
LINE
  5
37D
330
755
100
AcDbEntity
  8
0
 62
     0
100
AcDbLine
 10
6888.016384305882
 20
1460.003824135585
 30
0.0
 11
6994.441134772436
 21
1566.428574602138
 31
0.0
  0
LINE
  5
37E
330
755
100
AcDbEntity
  8
0
 62
     0
100
AcDbLine
 10
6882.005758244705
 20
1471.670867604069
 30
0.0
 11
6982.774091301177
 21
1572.439200660541
 31
0.0
  0
LINE
  5
37F
330
755
100
AcDbEntity
  8
0
 62
     0
100
AcDbLine
 10
6874.329211786001
 20
1481.671990675029
 30
0.0
 11
6972.772968227761
 21
1580.11574711679
 31
0.0
  0
LINE
  5
380
330
755
100
AcDbEntity
  8
0
 62
     0
100
AcDbLine
 10
6865.101957570236
 20
1490.122405988928
 30
0.0
 11
6964.32255291146
 21
1589.343001330151
 31
0.0
  0
LINE
  5
381
330
755
100
AcDbEntity
  8
0
 62
     0
100
AcDbLine
 10
6854.286752413432
 20
1496.984870361788
 30
0.0
 11
6957.460088536024
 21
1600.158206484379
 31
0.0
  0
LINE
  5
382
330
755
100
AcDbEntity
  8
0
 62
     0
100
AcDbLine
 10
6841.673579161239
 20
1502.049366639259
 30
0.0
 11
6952.395592255469
 21
1612.771379733489
 31
0.0
  0
LINE
  5
383
330
755
100
AcDbEntity
  8
0
 62
     0
100
AcDbLine
 10
6826.738967711621
 20
1504.792424719306
 30
0.0
 11
6949.652534171102
 21
1627.705991178785
 31
0.0
  0
LINE
  5
384
330
755
100
AcDbEntity
  8
0
 62
     0
100
AcDbLine
 10
6808.043475675635
 20
1503.774602212981
 30
0.0
 11
6950.670356669168
 21
1646.401483206515
 31
0.0
  0
LINE
  5
385
330
755
100
AcDbEntity
  8
0
 62
     0
100
AcDbLine
 10
7008.21612532021
 20
1703.947251857557
 30
0.0
 11
7021.444682965055
 21
1717.175809502403
 31
0.0
  0
LINE
  5
386
330
755
100
AcDbEntity
  8
0
 62
     0
100
AcDbLine
 10
6737.269149386057
 20
1433.000275923405
 30
0.0
 11
6750.497707064694
 21
1446.228833602041
 31
0.0
  0
LINE
  5
387
330
755
100
AcDbEntity
  8
0
 62
     0
100
AcDbLine
 10
6773.127356741039
 20
1486.53615280805
 30
0.0
 11
6967.90880583509
 21
1681.317601902101
 31
0.0
  0
LINE
  5
388
330
755
100
AcDbEntity
  8
0
 62
     0
100
AcDbLine
 10
6973.300006624622
 20
1686.708802691633
 30
0.0
 11
7021.444682965054
 21
1734.853479032064
 31
0.0
  0
LINE
  5
389
330
755
100
AcDbEntity
  8
0
 62
     0
100
AcDbLine
 10
6719.591479856396
 20
1433.000275923406
 30
0.0
 11
6767.736156469623
 21
1481.144952536633
 31
0.0
  0
LINE
  5
38A
330
755
100
AcDbEntity
  8
0
 62
     0
100
AcDbLine
 10
6701.913810326729
 20
1433.000275923403
 30
0.0
 11
7021.444682965054
 21
1752.531148561726
 31
0.0
  0
LINE
  5
38B
330
755
100
AcDbEntity
  8
0
 62
     0
100
AcDbLine
 10
6684.236140797065
 20
1433.000275923403
 30
0.0
 11
7021.444682965055
 21
1770.208818091392
 31
0.0
  0
LINE
  5
38C
330
755
100
AcDbEntity
  8
0
 62
     0
100
AcDbLine
 10
6666.558471267403
 20
1433.000275923405
 30
0.0
 11
7021.444682965054
 21
1787.886487621056
 31
0.0
  0
LINE
  5
38D
330
755
100
AcDbEntity
  8
0
 62
     0
100
AcDbLine
 10
6648.880801737738
 20
1433.000275923405
 30
0.0
 11
7021.444682965054
 21
1805.56415715072
 31
0.0
  0
LINE
  5
38E
330
755
100
AcDbEntity
  8
0
 62
     0
100
AcDbLine
 10
6631.203132208074
 20
1433.000275923405
 30
0.0
 11
7021.444682965055
 21
1823.241826680385
 31
0.0
  0
LINE
  5
38F
330
755
100
AcDbEntity
  8
0
 62
     0
100
AcDbLine
 10
6621.09938374534
 20
1440.574196990334
 30
0.0
 11
7013.870761896727
 21
1833.34557514172
 31
0.0
  0
LINE
  5
390
330
755
100
AcDbEntity
  8
0
 62
     0
100
AcDbLine
 10
6621.099383745342
 20
1458.251866519997
 30
0.0
 11
6996.193092367064
 21
1833.345575141718
 31
0.0
  0
LINE
  5
391
330
755
100
AcDbEntity
  8
0
 62
     0
100
AcDbLine
 10
6621.099383745344
 20
1475.929536049662
 30
0.0
 11
6978.5154228374
 21
1833.345575141718
 31
0.0
  0
LINE
  5
392
330
755
100
AcDbEntity
  8
0
 62
     0
100
AcDbLine
 10
6621.09938374534
 20
1493.607205579326
 30
0.0
 11
6960.837753307735
 21
1833.34557514172
 31
0.0
  0
LINE
  5
393
330
755
100
AcDbEntity
  8
0
 62
     0
100
AcDbLine
 10
6621.099383745342
 20
1511.284875108988
 30
0.0
 11
6943.160083778072
 21
1833.34557514172
 31
0.0
  0
LINE
  5
394
330
755
100
AcDbEntity
  8
0
 62
     0
100
AcDbLine
 10
6621.099383745342
 20
1528.962544638654
 30
0.0
 11
6925.482414248408
 21
1833.34557514172
 31
0.0
  0
LINE
  5
395
330
755
100
AcDbEntity
  8
0
 62
     0
100
AcDbLine
 10
6691.198973774257
 20
1616.739804197232
 30
0.0
 11
6837.705154680993
 21
1763.245985103967
 31
0.0
  0
LINE
  5
396
330
755
100
AcDbEntity
  8
0
 62
     0
100
AcDbLine
 10
6891.371623392018
 20
1816.912453814994
 30
0.0
 11
6907.804744718745
 21
1833.34557514172
 31
0.0
  0
LINE
  5
397
330
755
100
AcDbEntity
  8
0
 62
     0
100
AcDbLine
 10
6621.099383745344
 20
1546.640214168317
 30
0.0
 11
6637.532505109778
 21
1563.073335532754
 31
0.0
  0
LINE
  5
398
330
755
100
AcDbEntity
  8
0
 62
     0
100
AcDbLine
 10
6693.033514794437
 20
1636.252014747077
 30
0.0
 11
6818.192944141173
 21
1761.411444093812
 31
0.0
  0
LINE
  5
399
330
755
100
AcDbEntity
  8
0
 62
     0
100
AcDbLine
 10
6690.701921598456
 20
1651.598091080757
 30
0.0
 11
6802.846867812347
 21
1763.743037294649
 31
0.0
  0
LINE
  5
39A
330
755
100
AcDbEntity
  8
0
 62
     0
100
AcDbLine
 10
6685.926698454199
 20
1664.500537466165
 30
0.0
 11
6789.944421430305
 21
1768.51826044227
 31
0.0
  0
LINE
  5
39B
330
755
100
AcDbEntity
  8
0
 62
     0
100
AcDbLine
 10
6679.303698303623
 20
1675.555206845253
 30
0.0
 11
6778.889752053976
 21
1775.141260595606
 31
0.0
  0
LINE
  5
39C
330
755
100
AcDbEntity
  8
0
 62
     0
100
AcDbLine
 10
6671.074798850359
 20
1685.003976921653
 30
0.0
 11
6769.440981980108
 21
1783.370160051403
 31
0.0
  0
LINE
  5
39D
330
755
100
AcDbEntity
  8
0
 62
     0
100
AcDbLine
 10
6661.298844282839
 20
1692.905691883796
 30
0.0
 11
6761.539267020522
 21
1793.146114621478
 31
0.0
  0
LINE
  5
39E
330
755
100
AcDbEntity
  8
0
 62
     0
100
AcDbLine
 10
6649.884146446679
 20
1699.168663577298
 30
0.0
 11
6755.276295329867
 21
1804.560812460488
 31
0.0
  0
LINE
  5
39F
330
755
100
AcDbEntity
  8
0
 62
     0
100
AcDbLine
 10
6636.536399534738
 20
1703.498586195022
 30
0.0
 11
6750.946372715714
 21
1817.908559375997
 31
0.0
  0
LINE
  5
3A0
330
755
100
AcDbEntity
  8
0
 62
     0
100
AcDbLine
 10
6621.099383745344
 20
1705.73923993529
 30
0.0
 11
6748.705718951772
 21
1833.345575141718
 31
0.0
  0
LINE
  5
3A1
330
755
100
AcDbEntity
  8
0
 62
     0
100
AcDbLine
 10
6621.099383745342
 20
1723.416909464953
 30
0.0
 11
6731.028049422111
 21
1833.345575141722
 31
0.0
  0
LINE
  5
3A2
330
755
100
AcDbEntity
  8
0
 62
     0
100
AcDbLine
 10
6621.099383745342
 20
1741.094578994618
 30
0.0
 11
6713.350379892443
 21
1833.34557514172
 31
0.0
  0
LINE
  5
3A3
330
755
100
AcDbEntity
  8
0
 62
     0
100
AcDbLine
 10
6621.099383745344
 20
1758.772248524283
 30
0.0
 11
6695.67271036278
 21
1833.34557514172
 31
0.0
  0
LINE
  5
3A4
330
755
100
AcDbEntity
  8
0
 62
     0
100
AcDbLine
 10
6621.09938374534
 20
1776.449918053944
 30
0.0
 11
6677.995040833119
 21
1833.345575141722
 31
0.0
  0
LINE
  5
3A5
330
755
100
AcDbEntity
  8
0
 62
     0
100
AcDbLine
 10
6621.099383745342
 20
1794.127587583607
 30
0.0
 11
6660.317371303453
 21
1833.345575141718
 31
0.0
  0
LINE
  5
3A6
330
755
100
AcDbEntity
  8
0
 62
     0
100
AcDbLine
 10
6621.099383745344
 20
1811.805257113272
 30
0.0
 11
6642.63970177379
 21
1833.345575141718
 31
0.0
  0
LINE
  5
3A7
330
755
100
AcDbEntity
  8
0
 62
     0
100
AcDbLine
 10
6621.09938374534
 20
1829.482926642935
 30
0.0
 11
6624.962032244127
 21
1833.345575141722
 31
0.0
  0
ENDBLK
  5
3A9
330
755
100
AcDbEntity
  8
0
100
AcDbBlockEnd
  0
BLOCK
  5
758
330
757
100
AcDbEntity
  8
0
100
AcDbBlockBegin
  2
*X11
 70
     1
 10
0.0
 20
0.0
 30
0.0
  3
*X11
  1

  0
LINE
  5
3AB
330
757
100
AcDbEntity
  8
0
 62
     0
100
AcDbLine
 10
4010.111861860675
 20
1433.000275923403
 30
0.0
 11
4011.444682965054
 21
1434.333097027782
 31
0.0
  0
LINE
  5
3AC
330
757
100
AcDbEntity
  8
0
 62
     0
100
AcDbLine
 10
3992.434192331013
 20
1433.000275923405
 30
0.0
 11
4011.444682965055
 21
1452.010766557447
 31
0.0
  0
LINE
  5
3AD
330
757
100
AcDbEntity
  8
0
 62
     0
100
AcDbLine
 10
3974.756522801349
 20
1433.000275923405
 30
0.0
 11
4011.444682965056
 21
1469.688436087112
 31
0.0
  0
LINE
  5
3AE
330
757
100
AcDbEntity
  8
0
 62
     0
100
AcDbLine
 10
3957.078853271684
 20
1433.000275923405
 30
0.0
 11
4011.444682965054
 21
1487.366105616776
 31
0.0
  0
LINE
  5
3AF
330
757
100
AcDbEntity
  8
0
 62
     0
100
AcDbLine
 10
3939.401183742023
 20
1433.000275923405
 30
0.0
 11
4011.444682965055
 21
1505.043775146438
 31
0.0
  0
LINE
  5
3B0
330
757
100
AcDbEntity
  8
0
 62
     0
100
AcDbLine
 10
3921.723514212362
 20
1433.000275923406
 30
0.0
 11
4011.444682965056
 21
1522.721444676102
 31
0.0
  0
LINE
  5
3B1
330
757
100
AcDbEntity
  8
0
 62
     0
100
AcDbLine
 10
3904.045844682693
 20
1433.000275923403
 30
0.0
 11
4011.444682965056
 21
1540.399114205766
 31
0.0
  0
LINE
  5
3B2
330
757
100
AcDbEntity
  8
0
 62
     0
100
AcDbLine
 10
3886.368175153029
 20
1433.000275923405
 30
0.0
 11
4011.444682965055
 21
1558.076783735429
 31
0.0
  0
LINE
  5
3B3
330
757
100
AcDbEntity
  8
0
 62
     0
100
AcDbLine
 10
3882.026242560171
 20
1446.336012860206
 30
0.0
 11
3998.108946051372
 21
1562.418716351409
 31
0.0
  0
LINE
  5
3B4
330
757
100
AcDbEntity
  8
0
 62
     0
100
AcDbLine
 10
3878.016384305883
 20
1460.003824135585
 30
0.0
 11
3984.441134772435
 21
1566.428574602138
 31
0.0
  0
LINE
  5
3B5
330
757
100
AcDbEntity
  8
0
 62
     0
100
AcDbLine
 10
3872.005758244706
 20
1471.670867604069
 30
0.0
 11
3972.774091301177
 21
1572.439200660541
 31
0.0
  0
LINE
  5
3B6
330
757
100
AcDbEntity
  8
0
 62
     0
100
AcDbLine
 10
3864.329211786002
 20
1481.671990675029
 30
0.0
 11
3962.772968227761
 21
1580.11574711679
 31
0.0
  0
LINE
  5
3B7
330
757
100
AcDbEntity
  8
0
 62
     0
100
AcDbLine
 10
3855.101957570237
 20
1490.122405988928
 30
0.0
 11
3954.32255291146
 21
1589.343001330151
 31
0.0
  0
LINE
  5
3B8
330
757
100
AcDbEntity
  8
0
 62
     0
100
AcDbLine
 10
3844.286752413433
 20
1496.984870361788
 30
0.0
 11
3947.460088536023
 21
1600.158206484379
 31
0.0
  0
LINE
  5
3B9
330
757
100
AcDbEntity
  8
0
 62
     0
100
AcDbLine
 10
3831.67357916124
 20
1502.049366639259
 30
0.0
 11
3942.395592255469
 21
1612.771379733489
 31
0.0
  0
LINE
  5
3BA
330
757
100
AcDbEntity
  8
0
 62
     0
100
AcDbLine
 10
3816.738967711625
 20
1504.792424719306
 30
0.0
 11
3939.652534171101
 21
1627.705991178785
 31
0.0
  0
LINE
  5
3BB
330
757
100
AcDbEntity
  8
0
 62
     0
100
AcDbLine
 10
3798.043475675633
 20
1503.774602212981
 30
0.0
 11
3940.670356669167
 21
1646.401483206515
 31
0.0
  0
LINE
  5
3BC
330
757
100
AcDbEntity
  8
0
 62
     0
100
AcDbLine
 10
3998.216125320209
 20
1703.947251857557
 30
0.0
 11
4011.444682965055
 21
1717.175809502403
 31
0.0
  0
LINE
  5
3BD
330
757
100
AcDbEntity
  8
0
 62
     0
100
AcDbLine
 10
3727.269149386057
 20
1433.000275923405
 30
0.0
 11
3740.497707064693
 21
1446.228833602041
 31
0.0
  0
LINE
  5
3BE
330
757
100
AcDbEntity
  8
0
 62
     0
100
AcDbLine
 10
3763.127356741039
 20
1486.53615280805
 30
0.0
 11
3957.90880583509
 21
1681.317601902101
 31
0.0
  0
LINE
  5
3BF
330
757
100
AcDbEntity
  8
0
 62
     0
100
AcDbLine
 10
3963.300006624623
 20
1686.708802691633
 30
0.0
 11
4011.444682965053
 21
1734.853479032064
 31
0.0
  0
LINE
  5
3C0
330
757
100
AcDbEntity
  8
0
 62
     0
100
AcDbLine
 10
3709.591479856394
 20
1433.000275923405
 30
0.0
 11
3757.736156469623
 21
1481.144952536633
 31
0.0
  0
LINE
  5
3C1
330
757
100
AcDbEntity
  8
0
 62
     0
100
AcDbLine
 10
3691.91381032673
 20
1433.000275923403
 30
0.0
 11
4011.444682965054
 21
1752.531148561726
 31
0.0
  0
LINE
  5
3C2
330
757
100
AcDbEntity
  8
0
 62
     0
100
AcDbLine
 10
3674.236140797066
 20
1433.000275923403
 30
0.0
 11
4011.444682965055
 21
1770.208818091392
 31
0.0
  0
LINE
  5
3C3
330
757
100
AcDbEntity
  8
0
 62
     0
100
AcDbLine
 10
3656.558471267402
 20
1433.000275923405
 30
0.0
 11
4011.444682965053
 21
1787.886487621056
 31
0.0
  0
LINE
  5
3C4
330
757
100
AcDbEntity
  8
0
 62
     0
100
AcDbLine
 10
3638.88080173774
 20
1433.000275923405
 30
0.0
 11
4011.444682965054
 21
1805.56415715072
 31
0.0
  0
LINE
  5
3C5
330
757
100
AcDbEntity
  8
0
 62
     0
100
AcDbLine
 10
3621.203132208075
 20
1433.000275923405
 30
0.0
 11
4011.444682965055
 21
1823.241826680385
 31
0.0
  0
LINE
  5
3C6
330
757
100
AcDbEntity
  8
0
 62
     0
100
AcDbLine
 10
3611.099383745343
 20
1440.574196990336
 30
0.0
 11
4003.870761896727
 21
1833.34557514172
 31
0.0
  0
LINE
  5
3C7
330
757
100
AcDbEntity
  8
0
 62
     0
100
AcDbLine
 10
3611.099383745344
 20
1458.251866519998
 30
0.0
 11
3986.193092367063
 21
1833.345575141718
 31
0.0
  0
LINE
  5
3C8
330
757
100
AcDbEntity
  8
0
 62
     0
100
AcDbLine
 10
3611.099383745343
 20
1475.929536049662
 30
0.0
 11
3968.515422837401
 21
1833.345575141718
 31
0.0
  0
LINE
  5
3C9
330
757
100
AcDbEntity
  8
0
 62
     0
100
AcDbLine
 10
3611.099383745343
 20
1493.607205579326
 30
0.0
 11
3950.837753307737
 21
1833.34557514172
 31
0.0
  0
LINE
  5
3CA
330
757
100
AcDbEntity
  8
0
 62
     0
100
AcDbLine
 10
3611.099383745342
 20
1511.284875108988
 30
0.0
 11
3933.160083778074
 21
1833.345575141722
 31
0.0
  0
LINE
  5
3CB
330
757
100
AcDbEntity
  8
0
 62
     0
100
AcDbLine
 10
3611.099383745342
 20
1528.962544638654
 30
0.0
 11
3915.482414248407
 21
1833.34557514172
 31
0.0
  0
LINE
  5
3CC
330
757
100
AcDbEntity
  8
0
 62
     0
100
AcDbLine
 10
3681.198973774257
 20
1616.739804197232
 30
0.0
 11
3827.705154680993
 21
1763.245985103967
 31
0.0
  0
LINE
  5
3CD
330
757
100
AcDbEntity
  8
0
 62
     0
100
AcDbLine
 10
3881.371623392019
 20
1816.912453814994
 30
0.0
 11
3897.804744718746
 21
1833.34557514172
 31
0.0
  0
LINE
  5
3CE
330
757
100
AcDbEntity
  8
0
 62
     0
100
AcDbLine
 10
3611.099383745343
 20
1546.640214168317
 30
0.0
 11
3627.532505109779
 21
1563.073335532754
 31
0.0
  0
LINE
  5
3CF
330
757
100
AcDbEntity
  8
0
 62
     0
100
AcDbLine
 10
3683.033514794438
 20
1636.252014747077
 30
0.0
 11
3808.192944141173
 21
1761.411444093812
 31
0.0
  0
LINE
  5
3D0
330
757
100
AcDbEntity
  8
0
 62
     0
100
AcDbLine
 10
3680.701921598455
 20
1651.598091080757
 30
0.0
 11
3792.846867812347
 21
1763.743037294649
 31
0.0
  0
LINE
  5
3D1
330
757
100
AcDbEntity
  8
0
 62
     0
100
AcDbLine
 10
3675.9266984542
 20
1664.500537466165
 30
0.0
 11
3779.944421430304
 21
1768.51826044227
 31
0.0
  0
LINE
  5
3D2
330
757
100
AcDbEntity
  8
0
 62
     0
100
AcDbLine
 10
3669.303698303623
 20
1675.555206845253
 30
0.0
 11
3768.889752053978
 21
1775.141260595606
 31
0.0
  0
LINE
  5
3D3
330
757
100
AcDbEntity
  8
0
 62
     0
100
AcDbLine
 10
3661.074798850358
 20
1685.003976921653
 30
0.0
 11
3759.440981980109
 21
1783.370160051403
 31
0.0
  0
LINE
  5
3D4
330
757
100
AcDbEntity
  8
0
 62
     0
100
AcDbLine
 10
3651.29884428284
 20
1692.905691883796
 30
0.0
 11
3751.539267020521
 21
1793.146114621478
 31
0.0
  0
LINE
  5
3D5
330
757
100
AcDbEntity
  8
0
 62
     0
100
AcDbLine
 10
3639.884146446679
 20
1699.168663577298
 30
0.0
 11
3745.276295329869
 21
1804.560812460488
 31
0.0
  0
LINE
  5
3D6
330
757
100
AcDbEntity
  8
0
 62
     0
100
AcDbLine
 10
3626.536399534737
 20
1703.498586195022
 30
0.0
 11
3740.946372715714
 21
1817.908559375997
 31
0.0
  0
LINE
  5
3D7
330
757
100
AcDbEntity
  8
0
 62
     0
100
AcDbLine
 10
3611.099383745343
 20
1705.73923993529
 30
0.0
 11
3738.70571895177
 21
1833.345575141718
 31
0.0
  0
LINE
  5
3D8
330
757
100
AcDbEntity
  8
0
 62
     0
100
AcDbLine
 10
3611.099383745342
 20
1723.416909464953
 30
0.0
 11
3721.028049422111
 21
1833.345575141722
 31
0.0
  0
LINE
  5
3D9
330
757
100
AcDbEntity
  8
0
 62
     0
100
AcDbLine
 10
3611.099383745344
 20
1741.09457899462
 30
0.0
 11
3703.350379892444
 21
1833.34557514172
 31
0.0
  0
LINE
  5
3DA
330
757
100
AcDbEntity
  8
0
 62
     0
100
AcDbLine
 10
3611.099383745343
 20
1758.772248524283
 30
0.0
 11
3685.67271036278
 21
1833.34557514172
 31
0.0
  0
LINE
  5
3DB
330
757
100
AcDbEntity
  8
0
 62
     0
100
AcDbLine
 10
3611.099383745342
 20
1776.449918053944
 30
0.0
 11
3667.995040833119
 21
1833.34557514172
 31
0.0
  0
LINE
  5
3DC
330
757
100
AcDbEntity
  8
0
 62
     0
100
AcDbLine
 10
3611.099383745342
 20
1794.127587583607
 30
0.0
 11
3650.317371303453
 21
1833.345575141718
 31
0.0
  0
LINE
  5
3DD
330
757
100
AcDbEntity
  8
0
 62
     0
100
AcDbLine
 10
3611.099383745343
 20
1811.805257113272
 30
0.0
 11
3632.639701773789
 21
1833.345575141718
 31
0.0
  0
LINE
  5
3DE
330
757
100
AcDbEntity
  8
0
 62
     0
100
AcDbLine
 10
3611.099383745342
 20
1829.482926642935
 30
0.0
 11
3614.962032244126
 21
1833.34557514172
 31
0.0
  0
ENDBLK
  5
3E0
330
757
100
AcDbEntity
  8
0
100
AcDbBlockEnd
  0
BLOCK
  5
75A
330
759
100
AcDbEntity
  8
0
100
AcDbBlockBegin
  2
*U12
 70
     1
 10
0.0
 20
0.0
 30
0.0
  3
*U12
  1

  0
TEXT
  5
3E2
330
759
100
AcDbEntity
  8
0
 62
     2
100
AcDbText
 10
8836.60629689507
 20
1378.235398144461
 30
0.0
 40
135.0
  1
피 복
 50
90.0
  7
GHS
100
AcDbText
  0
ENDBLK
  5
3E4
330
759
100
AcDbEntity
  8
0
100
AcDbBlockEnd
  0
BLOCK
  5
75C
330
75B
100
AcDbEntity
  8
0
100
AcDbBlockBegin
  2
*U13
 70
     1
 10
0.0
 20
0.0
 30
0.0
  3
*U13
  1

  0
TEXT
  5
3E6
330
75B
100
AcDbEntity
  8
0
 62
     2
100
AcDbText
 10
8575.835115116888
 20
2102.319150016976
 30
0.0
 40
135.0
  1
유효간격(D)
 50
90.0
  7
GHS
100
AcDbText
  0
ENDBLK
  5
3E8
330
75B
100
AcDbEntity
  8
0
100
AcDbBlockEnd
  0
BLOCK
  5
75E
330
75D
100
AcDbEntity
  8
0
100
AcDbBlockBegin
  2
*X14
 70
     1
 10
0.0
 20
0.0
 30
0.0
  3
*X14
  1

  0
LINE
  5
408
330
75D
100
AcDbEntity
  8
0
 62
     0
100
AcDbLine
 10
1000.111861860674
 20
1433.000275923403
 30
0.0
 11
1001.444682965053
 21
1434.333097027782
 31
0.0
  0
LINE
  5
409
330
75D
100
AcDbEntity
  8
0
 62
     0
100
AcDbLine
 10
982.4341923310131
 20
1433.000275923405
 30
0.0
 11
1001.444682965053
 21
1452.010766557445
 31
0.0
  0
LINE
  5
40A
330
75D
100
AcDbEntity
  8
0
 62
     0
100
AcDbLine
 10
964.7565228013514
 20
1433.000275923406
 30
0.0
 11
1001.444682965055
 21
1469.68843608711
 31
0.0
  0
LINE
  5
40B
330
75D
100
AcDbEntity
  8
0
 62
     0
100
AcDbLine
 10
947.078853271685
 20
1433.000275923405
 30
0.0
 11
1001.444682965055
 21
1487.366105616775
 31
0.0
  0
LINE
  5
40C
330
75D
100
AcDbEntity
  8
0
 62
     0
100
AcDbLine
 10
929.4011837420219
 20
1433.000275923405
 30
0.0
 11
1001.444682965053
 21
1505.043775146436
 31
0.0
  0
LINE
  5
40D
330
75D
100
AcDbEntity
  8
0
 62
     0
100
AcDbLine
 10
911.7235142123588
 20
1433.000275923406
 30
0.0
 11
1001.444682965053
 21
1522.721444676101
 31
0.0
  0
LINE
  5
40E
330
75D
100
AcDbEntity
  8
0
 62
     0
100
AcDbLine
 10
894.0458446826923
 20
1433.000275923403
 30
0.0
 11
1001.444682965053
 21
1540.399114205764
 31
0.0
  0
LINE
  5
40F
330
75D
100
AcDbEntity
  8
0
 62
     0
100
AcDbLine
 10
876.3681751530292
 20
1433.000275923405
 30
0.0
 11
1001.444682965055
 21
1558.076783735429
 31
0.0
  0
LINE
  5
410
330
75D
100
AcDbEntity
  8
0
 62
     0
100
AcDbLine
 10
872.0262425601704
 20
1446.336012860206
 30
0.0
 11
988.108946051372
 21
1562.418716351409
 31
0.0
  0
LINE
  5
411
330
75D
100
AcDbEntity
  8
0
 62
     0
100
AcDbLine
 10
868.0163843058831
 20
1460.003824135585
 30
0.0
 11
974.441134772436
 21
1566.428574602138
 31
0.0
  0
LINE
  5
412
330
75D
100
AcDbEntity
  8
0
 62
     0
100
AcDbLine
 10
862.0057582447044
 20
1471.670867604069
 30
0.0
 11
962.7740913011763
 21
1572.439200660541
 31
0.0
  0
LINE
  5
413
330
75D
100
AcDbEntity
  8
0
 62
     0
100
AcDbLine
 10
854.3292117860001
 20
1481.671990675029
 30
0.0
 11
952.7729682277604
 21
1580.11574711679
 31
0.0
  0
LINE
  5
414
330
75D
100
AcDbEntity
  8
0
 62
     0
100
AcDbLine
 10
845.1019575702357
 20
1490.122405988928
 30
0.0
 11
944.3225529114583
 21
1589.343001330151
 31
0.0
  0
LINE
  5
415
330
75D
100
AcDbEntity
  8
0
 62
     0
100
AcDbLine
 10
834.2867524134327
 20
1496.984870361788
 30
0.0
 11
937.4600885360232
 21
1600.158206484379
 31
0.0
  0
LINE
  5
416
330
75D
100
AcDbEntity
  8
0
 62
     0
100
AcDbLine
 10
821.6735791612391
 20
1502.049366639259
 30
0.0
 11
932.3955922554686
 21
1612.771379733489
 31
0.0
  0
LINE
  5
417
330
75D
100
AcDbEntity
  8
0
 62
     0
100
AcDbLine
 10
806.7389677116223
 20
1504.792424719306
 30
0.0
 11
929.6525341711021
 21
1627.705991178785
 31
0.0
  0
LINE
  5
418
330
75D
100
AcDbEntity
  8
0
 62
     0
100
AcDbLine
 10
788.0434756756326
 20
1503.774602212981
 30
0.0
 11
930.6703566691666
 21
1646.401483206515
 31
0.0
  0
LINE
  5
419
330
75D
100
AcDbEntity
  8
0
 62
     0
100
AcDbLine
 10
988.2161253202085
 20
1703.947251857557
 30
0.0
 11
1001.444682965055
 21
1717.175809502403
 31
0.0
  0
LINE
  5
41A
330
75D
100
AcDbEntity
  8
0
 62
     0
100
AcDbLine
 10
717.2691493860568
 20
1433.000275923405
 30
0.0
 11
730.4977070646927
 21
1446.228833602041
 31
0.0
  0
LINE
  5
41B
330
75D
100
AcDbEntity
  8
0
 62
     0
100
AcDbLine
 10
753.1273567410388
 20
1486.53615280805
 30
0.0
 11
947.9088058350894
 21
1681.317601902101
 31
0.0
  0
LINE
  5
41C
330
75D
100
AcDbEntity
  8
0
 62
     0
100
AcDbLine
 10
953.3000066246222
 20
1686.708802691633
 30
0.0
 11
1001.444682965053
 21
1734.853479032064
 31
0.0
  0
LINE
  5
41D
330
75D
100
AcDbEntity
  8
0
 62
     0
100
AcDbLine
 10
699.5914798563952
 20
1433.000275923406
 30
0.0
 11
747.7361564696217
 21
1481.144952536633
 31
0.0
  0
LINE
  5
41E
330
75D
100
AcDbEntity
  8
0
 62
     0
100
AcDbLine
 10
681.9138103267285
 20
1433.000275923403
 30
0.0
 11
1001.444682965053
 21
1752.531148561726
 31
0.0
  0
LINE
  5
41F
330
75D
100
AcDbEntity
  8
0
 62
     0
100
AcDbLine
 10
664.2361407970656
 20
1433.000275923403
 30
0.0
 11
1001.444682965055
 21
1770.208818091392
 31
0.0
  0
LINE
  5
420
330
75D
100
AcDbEntity
  8
0
 62
     0
100
AcDbLine
 10
646.5584712674044
 20
1433.000275923406
 30
0.0
 11
1001.444682965053
 21
1787.886487621056
 31
0.0
  0
LINE
  5
421
330
75D
100
AcDbEntity
  8
0
 62
     0
100
AcDbLine
 10
628.8808017377395
 20
1433.000275923405
 30
0.0
 11
1001.444682965055
 21
1805.56415715072
 31
0.0
  0
LINE
  5
422
330
75D
100
AcDbEntity
  8
0
 62
     0
100
AcDbLine
 10
611.2031322080747
 20
1433.000275923405
 30
0.0
 11
1001.444682965055
 21
1823.241826680385
 31
0.0
  0
LINE
  5
423
330
75D
100
AcDbEntity
  8
0
 62
     0
100
AcDbLine
 10
601.0993837453407
 20
1440.574196990334
 30
0.0
 11
993.8707618967292
 21
1833.345575141722
 31
0.0
  0
LINE
  5
424
330
75D
100
AcDbEntity
  8
0
 62
     0
100
AcDbLine
 10
601.0993837453407
 20
1458.251866519997
 30
0.0
 11
976.1930923670622
 21
1833.345575141718
 31
0.0
  0
LINE
  5
425
330
75D
100
AcDbEntity
  8
0
 62
     0
100
AcDbLine
 10
601.0993837453423
 20
1475.929536049662
 30
0.0
 11
958.5154228373994
 21
1833.345575141718
 31
0.0
  0
LINE
  5
426
330
75D
100
AcDbEntity
  8
0
 62
     0
100
AcDbLine
 10
601.0993837453407
 20
1493.607205579326
 30
0.0
 11
940.8377533077382
 21
1833.345575141722
 31
0.0
  0
LINE
  5
427
330
75D
100
AcDbEntity
  8
0
 62
     0
100
AcDbLine
 10
601.0993837453423
 20
1511.284875108988
 30
0.0
 11
923.1600837780751
 21
1833.345575141722
 31
0.0
  0
LINE
  5
428
330
75D
100
AcDbEntity
  8
0
 62
     0
100
AcDbLine
 10
601.0993837453423
 20
1528.962544638654
 30
0.0
 11
905.4824142484083
 21
1833.34557514172
 31
0.0
  0
LINE
  5
429
330
75D
100
AcDbEntity
  8
0
 62
     0
100
AcDbLine
 10
671.198973774257
 20
1616.739804197232
 30
0.0
 11
817.7051546809924
 21
1763.245985103967
 31
0.0
  0
LINE
  5
42A
330
75D
100
AcDbEntity
  8
0
 62
     0
100
AcDbLine
 10
871.3716233920187
 20
1816.912453814994
 30
0.0
 11
887.8047447187455
 21
1833.34557514172
 31
0.0
  0
LINE
  5
42B
330
75D
100
AcDbEntity
  8
0
 62
     0
100
AcDbLine
 10
601.0993837453423
 20
1546.640214168317
 30
0.0
 11
617.5325051097789
 21
1563.073335532754
 31
0.0
  0
LINE
  5
42C
330
75D
100
AcDbEntity
  8
0
 62
     0
100
AcDbLine
 10
673.0335147944368
 20
1636.252014747077
 30
0.0
 11
798.1929441411722
 21
1761.411444093812
 31
0.0
  0
LINE
  5
42D
330
75D
100
AcDbEntity
  8
0
 62
     0
100
AcDbLine
 10
670.7019215984546
 20
1651.598091080757
 30
0.0
 11
782.8468678123462
 21
1763.743037294649
 31
0.0
  0
LINE
  5
42E
330
75D
100
AcDbEntity
  8
0
 62
     0
100
AcDbLine
 10
665.9266984541992
 20
1664.500537466165
 30
0.0
 11
769.9444214303038
 21
1768.51826044227
 31
0.0
  0
LINE
  5
42F
330
75D
100
AcDbEntity
  8
0
 62
     0
100
AcDbLine
 10
659.3036983036236
 20
1675.555206845253
 30
0.0
 11
758.8897520539776
 21
1775.141260595606
 31
0.0
  0
LINE
  5
430
330
75D
100
AcDbEntity
  8
0
 62
     0
100
AcDbLine
 10
651.074798850359
 20
1685.003976921653
 30
0.0
 11
749.4409819801095
 21
1783.370160051403
 31
0.0
  0
LINE
  5
431
330
75D
100
AcDbEntity
  8
0
 62
     0
100
AcDbLine
 10
641.2988442828391
 20
1692.905691883796
 30
0.0
 11
741.5392670205217
 21
1793.146114621478
 31
0.0
  0
LINE
  5
432
330
75D
100
AcDbEntity
  8
0
 62
     0
100
AcDbLine
 10
629.8841464466767
 20
1699.168663577298
 30
0.0
 11
735.2762953298662
 21
1804.560812460488
 31
0.0
  0
LINE
  5
433
330
75D
100
AcDbEntity
  8
0
 62
     0
100
AcDbLine
 10
616.5363995347361
 20
1703.498586195022
 30
0.0
 11
730.9463727157126
 21
1817.908559375997
 31
0.0
  0
LINE
  5
434
330
75D
100
AcDbEntity
  8
0
 62
     0
100
AcDbLine
 10
601.0993837453423
 20
1705.73923993529
 30
0.0
 11
728.7057189517708
 21
1833.345575141718
 31
0.0
  0
LINE
  5
435
330
75D
100
AcDbEntity
  8
0
 62
     0
100
AcDbLine
 10
601.0993837453423
 20
1723.416909464953
 30
0.0
 11
711.0280494221115
 21
1833.345575141722
 31
0.0
  0
LINE
  5
436
330
75D
100
AcDbEntity
  8
0
 62
     0
100
AcDbLine
 10
601.0993837453423
 20
1741.094578994618
 30
0.0
 11
693.3503798924447
 21
1833.34557514172
 31
0.0
  0
LINE
  5
437
330
75D
100
AcDbEntity
  8
0
 62
     0
100
AcDbLine
 10
601.0993837453423
 20
1758.772248524283
 30
0.0
 11
675.67271036278
 21
1833.34557514172
 31
0.0
  0
LINE
  5
438
330
75D
100
AcDbEntity
  8
0
 62
     0
100
AcDbLine
 10
601.0993837453407
 20
1776.449918053944
 30
0.0
 11
657.9950408331185
 21
1833.345575141722
 31
0.0
  0
LINE
  5
439
330
75D
100
AcDbEntity
  8
0
 62
     0
100
AcDbLine
 10
601.0993837453407
 20
1794.127587583607
 30
0.0
 11
640.317371303452
 21
1833.345575141718
 31
0.0
  0
LINE
  5
43A
330
75D
100
AcDbEntity
  8
0
 62
     0
100
AcDbLine
 10
601.0993837453423
 20
1811.805257113272
 30
0.0
 11
622.6397017737889
 21
1833.345575141718
 31
0.0
  0
LINE
  5
43B
330
75D
100
AcDbEntity
  8
0
 62
     0
100
AcDbLine
 10
601.0993837453407
 20
1829.482926642935
 30
0.0
 11
604.9620322441276
 21
1833.345575141722
 31
0.0
  0
ENDBLK
  5
43D
330
75D
100
AcDbEntity
  8
0
100
AcDbBlockEnd
  0
BLOCK
  5
760
330
75F
100
AcDbEntity
  8
0
100
AcDbBlockBegin
  2
*X15
 70
     1
 10
0.0
 20
0.0
 30
0.0
  3
*X15
  1

  0
LINE
  5
43F
330
75F
100
AcDbEntity
  8
0
 62
     0
100
AcDbLine
 10
7020.111861860676
 20
1433.000275923403
 30
0.0
 11
7021.444682965054
 21
1434.333097027782
 31
0.0
  0
LINE
  5
440
330
75F
100
AcDbEntity
  8
0
 62
     0
100
AcDbLine
 10
7002.434192331013
 20
1433.000275923405
 30
0.0
 11
7021.444682965054
 21
1452.010766557445
 31
0.0
  0
LINE
  5
441
330
75F
100
AcDbEntity
  8
0
 62
     0
100
AcDbLine
 10
6984.756522801351
 20
1433.000275923406
 30
0.0
 11
7021.444682965054
 21
1469.68843608711
 31
0.0
  0
LINE
  5
442
330
75F
100
AcDbEntity
  8
0
 62
     0
100
AcDbLine
 10
6967.078853271684
 20
1433.000275923405
 30
0.0
 11
7021.444682965054
 21
1487.366105616775
 31
0.0
  0
LINE
  5
443
330
75F
100
AcDbEntity
  8
0
 62
     0
100
AcDbLine
 10
6949.401183742022
 20
1433.000275923405
 30
0.0
 11
7021.444682965054
 21
1505.043775146436
 31
0.0
  0
LINE
  5
444
330
75F
100
AcDbEntity
  8
0
 62
     0
100
AcDbLine
 10
6931.723514212361
 20
1433.000275923406
 30
0.0
 11
7021.444682965054
 21
1522.721444676101
 31
0.0
  0
LINE
  5
445
330
75F
100
AcDbEntity
  8
0
 62
     0
100
AcDbLine
 10
6914.045844682694
 20
1433.000275923403
 30
0.0
 11
7021.444682965054
 21
1540.399114205764
 31
0.0
  0
LINE
  5
446
330
75F
100
AcDbEntity
  8
0
 62
     0
100
AcDbLine
 10
6896.36817515303
 20
1433.000275923405
 30
0.0
 11
7021.444682965055
 21
1558.076783735429
 31
0.0
  0
LINE
  5
447
330
75F
100
AcDbEntity
  8
0
 62
     0
100
AcDbLine
 10
6892.026242560169
 20
1446.336012860206
 30
0.0
 11
7008.108946051371
 21
1562.418716351409
 31
0.0
  0
LINE
  5
448
330
75F
100
AcDbEntity
  8
0
 62
     0
100
AcDbLine
 10
6888.016384305882
 20
1460.003824135585
 30
0.0
 11
6994.441134772436
 21
1566.428574602138
 31
0.0
  0
LINE
  5
449
330
75F
100
AcDbEntity
  8
0
 62
     0
100
AcDbLine
 10
6882.005758244705
 20
1471.670867604069
 30
0.0
 11
6982.774091301177
 21
1572.439200660541
 31
0.0
  0
LINE
  5
44A
330
75F
100
AcDbEntity
  8
0
 62
     0
100
AcDbLine
 10
6874.329211786001
 20
1481.671990675029
 30
0.0
 11
6972.772968227761
 21
1580.11574711679
 31
0.0
  0
LINE
  5
44B
330
75F
100
AcDbEntity
  8
0
 62
     0
100
AcDbLine
 10
6865.101957570236
 20
1490.122405988928
 30
0.0
 11
6964.32255291146
 21
1589.343001330151
 31
0.0
  0
LINE
  5
44C
330
75F
100
AcDbEntity
  8
0
 62
     0
100
AcDbLine
 10
6854.286752413432
 20
1496.984870361788
 30
0.0
 11
6957.460088536024
 21
1600.158206484379
 31
0.0
  0
LINE
  5
44D
330
75F
100
AcDbEntity
  8
0
 62
     0
100
AcDbLine
 10
6841.673579161239
 20
1502.049366639259
 30
0.0
 11
6952.395592255469
 21
1612.771379733489
 31
0.0
  0
LINE
  5
44E
330
75F
100
AcDbEntity
  8
0
 62
     0
100
AcDbLine
 10
6826.738967711621
 20
1504.792424719306
 30
0.0
 11
6949.652534171102
 21
1627.705991178785
 31
0.0
  0
LINE
  5
44F
330
75F
100
AcDbEntity
  8
0
 62
     0
100
AcDbLine
 10
6808.043475675635
 20
1503.774602212981
 30
0.0
 11
6950.670356669168
 21
1646.401483206515
 31
0.0
  0
LINE
  5
450
330
75F
100
AcDbEntity
  8
0
 62
     0
100
AcDbLine
 10
7008.21612532021
 20
1703.947251857557
 30
0.0
 11
7021.444682965055
 21
1717.175809502403
 31
0.0
  0
LINE
  5
451
330
75F
100
AcDbEntity
  8
0
 62
     0
100
AcDbLine
 10
6737.269149386057
 20
1433.000275923405
 30
0.0
 11
6750.497707064694
 21
1446.228833602041
 31
0.0
  0
LINE
  5
452
330
75F
100
AcDbEntity
  8
0
 62
     0
100
AcDbLine
 10
6773.127356741039
 20
1486.53615280805
 30
0.0
 11
6967.90880583509
 21
1681.317601902101
 31
0.0
  0
LINE
  5
453
330
75F
100
AcDbEntity
  8
0
 62
     0
100
AcDbLine
 10
6973.300006624622
 20
1686.708802691633
 30
0.0
 11
7021.444682965054
 21
1734.853479032064
 31
0.0
  0
LINE
  5
454
330
75F
100
AcDbEntity
  8
0
 62
     0
100
AcDbLine
 10
6719.591479856396
 20
1433.000275923406
 30
0.0
 11
6767.736156469623
 21
1481.144952536633
 31
0.0
  0
LINE
  5
455
330
75F
100
AcDbEntity
  8
0
 62
     0
100
AcDbLine
 10
6701.913810326729
 20
1433.000275923403
 30
0.0
 11
7021.444682965054
 21
1752.531148561726
 31
0.0
  0
LINE
  5
456
330
75F
100
AcDbEntity
  8
0
 62
     0
100
AcDbLine
 10
6684.236140797065
 20
1433.000275923403
 30
0.0
 11
7021.444682965055
 21
1770.208818091392
 31
0.0
  0
LINE
  5
457
330
75F
100
AcDbEntity
  8
0
 62
     0
100
AcDbLine
 10
6666.558471267403
 20
1433.000275923405
 30
0.0
 11
7021.444682965054
 21
1787.886487621056
 31
0.0
  0
LINE
  5
458
330
75F
100
AcDbEntity
  8
0
 62
     0
100
AcDbLine
 10
6648.880801737738
 20
1433.000275923405
 30
0.0
 11
7021.444682965054
 21
1805.56415715072
 31
0.0
  0
LINE
  5
459
330
75F
100
AcDbEntity
  8
0
 62
     0
100
AcDbLine
 10
6631.203132208074
 20
1433.000275923405
 30
0.0
 11
7021.444682965055
 21
1823.241826680385
 31
0.0
  0
LINE
  5
45A
330
75F
100
AcDbEntity
  8
0
 62
     0
100
AcDbLine
 10
6621.09938374534
 20
1440.574196990334
 30
0.0
 11
7013.870761896727
 21
1833.34557514172
 31
0.0
  0
LINE
  5
45B
330
75F
100
AcDbEntity
  8
0
 62
     0
100
AcDbLine
 10
6621.099383745342
 20
1458.251866519997
 30
0.0
 11
6996.193092367064
 21
1833.345575141718
 31
0.0
  0
LINE
  5
45C
330
75F
100
AcDbEntity
  8
0
 62
     0
100
AcDbLine
 10
6621.099383745344
 20
1475.929536049662
 30
0.0
 11
6978.5154228374
 21
1833.345575141718
 31
0.0
  0
LINE
  5
45D
330
75F
100
AcDbEntity
  8
0
 62
     0
100
AcDbLine
 10
6621.09938374534
 20
1493.607205579326
 30
0.0
 11
6960.837753307735
 21
1833.34557514172
 31
0.0
  0
LINE
  5
45E
330
75F
100
AcDbEntity
  8
0
 62
     0
100
AcDbLine
 10
6621.099383745342
 20
1511.284875108988
 30
0.0
 11
6943.160083778072
 21
1833.34557514172
 31
0.0
  0
LINE
  5
45F
330
75F
100
AcDbEntity
  8
0
 62
     0
100
AcDbLine
 10
6621.099383745342
 20
1528.962544638654
 30
0.0
 11
6925.482414248408
 21
1833.34557514172
 31
0.0
  0
LINE
  5
460
330
75F
100
AcDbEntity
  8
0
 62
     0
100
AcDbLine
 10
6691.198973774257
 20
1616.739804197232
 30
0.0
 11
6837.705154680993
 21
1763.245985103967
 31
0.0
  0
LINE
  5
461
330
75F
100
AcDbEntity
  8
0
 62
     0
100
AcDbLine
 10
6891.371623392018
 20
1816.912453814994
 30
0.0
 11
6907.804744718745
 21
1833.34557514172
 31
0.0
  0
LINE
  5
462
330
75F
100
AcDbEntity
  8
0
 62
     0
100
AcDbLine
 10
6621.099383745344
 20
1546.640214168317
 30
0.0
 11
6637.532505109778
 21
1563.073335532754
 31
0.0
  0
LINE
  5
463
330
75F
100
AcDbEntity
  8
0
 62
     0
100
AcDbLine
 10
6693.033514794437
 20
1636.252014747077
 30
0.0
 11
6818.192944141173
 21
1761.411444093812
 31
0.0
  0
LINE
  5
464
330
75F
100
AcDbEntity
  8
0
 62
     0
100
AcDbLine
 10
6690.701921598456
 20
1651.598091080757
 30
0.0
 11
6802.846867812347
 21
1763.743037294649
 31
0.0
  0
LINE
  5
465
330
75F
100
AcDbEntity
  8
0
 62
     0
100
AcDbLine
 10
6685.926698454199
 20
1664.500537466165
 30
0.0
 11
6789.944421430305
 21
1768.51826044227
 31
0.0
  0
LINE
  5
466
330
75F
100
AcDbEntity
  8
0
 62
     0
100
AcDbLine
 10
6679.303698303623
 20
1675.555206845253
 30
0.0
 11
6778.889752053976
 21
1775.141260595606
 31
0.0
  0
LINE
  5
467
330
75F
100
AcDbEntity
  8
0
 62
     0
100
AcDbLine
 10
6671.074798850359
 20
1685.003976921653
 30
0.0
 11
6769.440981980108
 21
1783.370160051403
 31
0.0
  0
LINE
  5
468
330
75F
100
AcDbEntity
  8
0
 62
     0
100
AcDbLine
 10
6661.298844282839
 20
1692.905691883796
 30
0.0
 11
6761.539267020522
 21
1793.146114621478
 31
0.0
  0
LINE
  5
469
330
75F
100
AcDbEntity
  8
0
 62
     0
100
AcDbLine
 10
6649.884146446679
 20
1699.168663577298
 30
0.0
 11
6755.276295329867
 21
1804.560812460488
 31
0.0
  0
LINE
  5
46A
330
75F
100
AcDbEntity
  8
0
 62
     0
100
AcDbLine
 10
6636.536399534738
 20
1703.498586195022
 30
0.0
 11
6750.946372715714
 21
1817.908559375997
 31
0.0
  0
LINE
  5
46B
330
75F
100
AcDbEntity
  8
0
 62
     0
100
AcDbLine
 10
6621.099383745344
 20
1705.73923993529
 30
0.0
 11
6748.705718951772
 21
1833.345575141718
 31
0.0
  0
LINE
  5
46C
330
75F
100
AcDbEntity
  8
0
 62
     0
100
AcDbLine
 10
6621.099383745342
 20
1723.416909464953
 30
0.0
 11
6731.028049422111
 21
1833.345575141722
 31
0.0
  0
LINE
  5
46D
330
75F
100
AcDbEntity
  8
0
 62
     0
100
AcDbLine
 10
6621.099383745342
 20
1741.094578994618
 30
0.0
 11
6713.350379892443
 21
1833.34557514172
 31
0.0
  0
LINE
  5
46E
330
75F
100
AcDbEntity
  8
0
 62
     0
100
AcDbLine
 10
6621.099383745344
 20
1758.772248524283
 30
0.0
 11
6695.67271036278
 21
1833.34557514172
 31
0.0
  0
LINE
  5
46F
330
75F
100
AcDbEntity
  8
0
 62
     0
100
AcDbLine
 10
6621.09938374534
 20
1776.449918053944
 30
0.0
 11
6677.995040833119
 21
1833.345575141722
 31
0.0
  0
LINE
  5
470
330
75F
100
AcDbEntity
  8
0
 62
     0
100
AcDbLine
 10
6621.099383745342
 20
1794.127587583607
 30
0.0
 11
6660.317371303453
 21
1833.345575141718
 31
0.0
  0
LINE
  5
471
330
75F
100
AcDbEntity
  8
0
 62
     0
100
AcDbLine
 10
6621.099383745344
 20
1811.805257113272
 30
0.0
 11
6642.63970177379
 21
1833.345575141718
 31
0.0
  0
LINE
  5
472
330
75F
100
AcDbEntity
  8
0
 62
     0
100
AcDbLine
 10
6621.09938374534
 20
1829.482926642935
 30
0.0
 11
6624.962032244127
 21
1833.345575141722
 31
0.0
  0
ENDBLK
  5
474
330
75F
100
AcDbEntity
  8
0
100
AcDbBlockEnd
  0
BLOCK
  5
762
330
761
100
AcDbEntity
  8
0
100
AcDbBlockBegin
  2
*X16
 70
     1
 10
0.0
 20
0.0
 30
0.0
  3
*X16
  1

  0
LINE
  5
476
330
761
100
AcDbEntity
  8
0
 62
     0
100
AcDbLine
 10
4010.111861860675
 20
1433.000275923403
 30
0.0
 11
4011.444682965054
 21
1434.333097027782
 31
0.0
  0
LINE
  5
477
330
761
100
AcDbEntity
  8
0
 62
     0
100
AcDbLine
 10
3992.434192331013
 20
1433.000275923405
 30
0.0
 11
4011.444682965055
 21
1452.010766557447
 31
0.0
  0
LINE
  5
478
330
761
100
AcDbEntity
  8
0
 62
     0
100
AcDbLine
 10
3974.756522801349
 20
1433.000275923405
 30
0.0
 11
4011.444682965056
 21
1469.688436087112
 31
0.0
  0
LINE
  5
479
330
761
100
AcDbEntity
  8
0
 62
     0
100
AcDbLine
 10
3957.078853271684
 20
1433.000275923405
 30
0.0
 11
4011.444682965054
 21
1487.366105616776
 31
0.0
  0
LINE
  5
47A
330
761
100
AcDbEntity
  8
0
 62
     0
100
AcDbLine
 10
3939.401183742023
 20
1433.000275923405
 30
0.0
 11
4011.444682965055
 21
1505.043775146438
 31
0.0
  0
LINE
  5
47B
330
761
100
AcDbEntity
  8
0
 62
     0
100
AcDbLine
 10
3921.723514212362
 20
1433.000275923406
 30
0.0
 11
4011.444682965056
 21
1522.721444676102
 31
0.0
  0
LINE
  5
47C
330
761
100
AcDbEntity
  8
0
 62
     0
100
AcDbLine
 10
3904.045844682693
 20
1433.000275923403
 30
0.0
 11
4011.444682965056
 21
1540.399114205766
 31
0.0
  0
LINE
  5
47D
330
761
100
AcDbEntity
  8
0
 62
     0
100
AcDbLine
 10
3886.368175153029
 20
1433.000275923405
 30
0.0
 11
4011.444682965055
 21
1558.076783735429
 31
0.0
  0
LINE
  5
47E
330
761
100
AcDbEntity
  8
0
 62
     0
100
AcDbLine
 10
3882.026242560171
 20
1446.336012860206
 30
0.0
 11
3998.108946051372
 21
1562.418716351409
 31
0.0
  0
LINE
  5
47F
330
761
100
AcDbEntity
  8
0
 62
     0
100
AcDbLine
 10
3878.016384305883
 20
1460.003824135585
 30
0.0
 11
3984.441134772435
 21
1566.428574602138
 31
0.0
  0
LINE
  5
480
330
761
100
AcDbEntity
  8
0
 62
     0
100
AcDbLine
 10
3872.005758244706
 20
1471.670867604069
 30
0.0
 11
3972.774091301177
 21
1572.439200660541
 31
0.0
  0
LINE
  5
481
330
761
100
AcDbEntity
  8
0
 62
     0
100
AcDbLine
 10
3864.329211786002
 20
1481.671990675029
 30
0.0
 11
3962.772968227761
 21
1580.11574711679
 31
0.0
  0
LINE
  5
482
330
761
100
AcDbEntity
  8
0
 62
     0
100
AcDbLine
 10
3855.101957570237
 20
1490.122405988928
 30
0.0
 11
3954.32255291146
 21
1589.343001330151
 31
0.0
  0
LINE
  5
483
330
761
100
AcDbEntity
  8
0
 62
     0
100
AcDbLine
 10
3844.286752413433
 20
1496.984870361788
 30
0.0
 11
3947.460088536023
 21
1600.158206484379
 31
0.0
  0
LINE
  5
484
330
761
100
AcDbEntity
  8
0
 62
     0
100
AcDbLine
 10
3831.67357916124
 20
1502.049366639259
 30
0.0
 11
3942.395592255469
 21
1612.771379733489
 31
0.0
  0
LINE
  5
485
330
761
100
AcDbEntity
  8
0
 62
     0
100
AcDbLine
 10
3816.738967711625
 20
1504.792424719306
 30
0.0
 11
3939.652534171101
 21
1627.705991178785
 31
0.0
  0
LINE
  5
486
330
761
100
AcDbEntity
  8
0
 62
     0
100
AcDbLine
 10
3798.043475675633
 20
1503.774602212981
 30
0.0
 11
3940.670356669167
 21
1646.401483206515
 31
0.0
  0
LINE
  5
487
330
761
100
AcDbEntity
  8
0
 62
     0
100
AcDbLine
 10
3998.216125320209
 20
1703.947251857557
 30
0.0
 11
4011.444682965055
 21
1717.175809502403
 31
0.0
  0
LINE
  5
488
330
761
100
AcDbEntity
  8
0
 62
     0
100
AcDbLine
 10
3727.269149386057
 20
1433.000275923405
 30
0.0
 11
3740.497707064693
 21
1446.228833602041
 31
0.0
  0
LINE
  5
489
330
761
100
AcDbEntity
  8
0
 62
     0
100
AcDbLine
 10
3763.127356741039
 20
1486.53615280805
 30
0.0
 11
3957.90880583509
 21
1681.317601902101
 31
0.0
  0
LINE
  5
48A
330
761
100
AcDbEntity
  8
0
 62
     0
100
AcDbLine
 10
3963.300006624623
 20
1686.708802691633
 30
0.0
 11
4011.444682965053
 21
1734.853479032064
 31
0.0
  0
LINE
  5
48B
330
761
100
AcDbEntity
  8
0
 62
     0
100
AcDbLine
 10
3709.591479856394
 20
1433.000275923405
 30
0.0
 11
3757.736156469623
 21
1481.144952536633
 31
0.0
  0
LINE
  5
48C
330
761
100
AcDbEntity
  8
0
 62
     0
100
AcDbLine
 10
3691.91381032673
 20
1433.000275923403
 30
0.0
 11
4011.444682965054
 21
1752.531148561726
 31
0.0
  0
LINE
  5
48D
330
761
100
AcDbEntity
  8
0
 62
     0
100
AcDbLine
 10
3674.236140797066
 20
1433.000275923403
 30
0.0
 11
4011.444682965055
 21
1770.208818091392
 31
0.0
  0
LINE
  5
48E
330
761
100
AcDbEntity
  8
0
 62
     0
100
AcDbLine
 10
3656.558471267402
 20
1433.000275923405
 30
0.0
 11
4011.444682965053
 21
1787.886487621056
 31
0.0
  0
LINE
  5
48F
330
761
100
AcDbEntity
  8
0
 62
     0
100
AcDbLine
 10
3638.88080173774
 20
1433.000275923405
 30
0.0
 11
4011.444682965054
 21
1805.56415715072
 31
0.0
  0
LINE
  5
490
330
761
100
AcDbEntity
  8
0
 62
     0
100
AcDbLine
 10
3621.203132208075
 20
1433.000275923405
 30
0.0
 11
4011.444682965055
 21
1823.241826680385
 31
0.0
  0
LINE
  5
491
330
761
100
AcDbEntity
  8
0
 62
     0
100
AcDbLine
 10
3611.099383745343
 20
1440.574196990336
 30
0.0
 11
4003.870761896727
 21
1833.34557514172
 31
0.0
  0
LINE
  5
492
330
761
100
AcDbEntity
  8
0
 62
     0
100
AcDbLine
 10
3611.099383745344
 20
1458.251866519998
 30
0.0
 11
3986.193092367063
 21
1833.345575141718
 31
0.0
  0
LINE
  5
493
330
761
100
AcDbEntity
  8
0
 62
     0
100
AcDbLine
 10
3611.099383745343
 20
1475.929536049662
 30
0.0
 11
3968.515422837401
 21
1833.345575141718
 31
0.0
  0
LINE
  5
494
330
761
100
AcDbEntity
  8
0
 62
     0
100
AcDbLine
 10
3611.099383745343
 20
1493.607205579326
 30
0.0
 11
3950.837753307737
 21
1833.34557514172
 31
0.0
  0
LINE
  5
495
330
761
100
AcDbEntity
  8
0
 62
     0
100
AcDbLine
 10
3611.099383745342
 20
1511.284875108988
 30
0.0
 11
3933.160083778074
 21
1833.345575141722
 31
0.0
  0
LINE
  5
496
330
761
100
AcDbEntity
  8
0
 62
     0
100
AcDbLine
 10
3611.099383745342
 20
1528.962544638654
 30
0.0
 11
3915.482414248407
 21
1833.34557514172
 31
0.0
  0
LINE
  5
497
330
761
100
AcDbEntity
  8
0
 62
     0
100
AcDbLine
 10
3681.198973774257
 20
1616.739804197232
 30
0.0
 11
3827.705154680993
 21
1763.245985103967
 31
0.0
  0
LINE
  5
498
330
761
100
AcDbEntity
  8
0
 62
     0
100
AcDbLine
 10
3881.371623392019
 20
1816.912453814994
 30
0.0
 11
3897.804744718746
 21
1833.34557514172
 31
0.0
  0
LINE
  5
499
330
761
100
AcDbEntity
  8
0
 62
     0
100
AcDbLine
 10
3611.099383745343
 20
1546.640214168317
 30
0.0
 11
3627.532505109779
 21
1563.073335532754
 31
0.0
  0
LINE
  5
49A
330
761
100
AcDbEntity
  8
0
 62
     0
100
AcDbLine
 10
3683.033514794438
 20
1636.252014747077
 30
0.0
 11
3808.192944141173
 21
1761.411444093812
 31
0.0
  0
LINE
  5
49B
330
761
100
AcDbEntity
  8
0
 62
     0
100
AcDbLine
 10
3680.701921598455
 20
1651.598091080757
 30
0.0
 11
3792.846867812347
 21
1763.743037294649
 31
0.0
  0
LINE
  5
49C
330
761
100
AcDbEntity
  8
0
 62
     0
100
AcDbLine
 10
3675.9266984542
 20
1664.500537466165
 30
0.0
 11
3779.944421430304
 21
1768.51826044227
 31
0.0
  0
LINE
  5
49D
330
761
100
AcDbEntity
  8
0
 62
     0
100
AcDbLine
 10
3669.303698303623
 20
1675.555206845253
 30
0.0
 11
3768.889752053978
 21
1775.141260595606
 31
0.0
  0
LINE
  5
49E
330
761
100
AcDbEntity
  8
0
 62
     0
100
AcDbLine
 10
3661.074798850358
 20
1685.003976921653
 30
0.0
 11
3759.440981980109
 21
1783.370160051403
 31
0.0
  0
LINE
  5
49F
330
761
100
AcDbEntity
  8
0
 62
     0
100
AcDbLine
 10
3651.29884428284
 20
1692.905691883796
 30
0.0
 11
3751.539267020521
 21
1793.146114621478
 31
0.0
  0
LINE
  5
4A0
330
761
100
AcDbEntity
  8
0
 62
     0
100
AcDbLine
 10
3639.884146446679
 20
1699.168663577298
 30
0.0
 11
3745.276295329869
 21
1804.560812460488
 31
0.0
  0
LINE
  5
4A1
330
761
100
AcDbEntity
  8
0
 62
     0
100
AcDbLine
 10
3626.536399534737
 20
1703.498586195022
 30
0.0
 11
3740.946372715714
 21
1817.908559375997
 31
0.0
  0
LINE
  5
4A2
330
761
100
AcDbEntity
  8
0
 62
     0
100
AcDbLine
 10
3611.099383745343
 20
1705.73923993529
 30
0.0
 11
3738.70571895177
 21
1833.345575141718
 31
0.0
  0
LINE
  5
4A3
330
761
100
AcDbEntity
  8
0
 62
     0
100
AcDbLine
 10
3611.099383745342
 20
1723.416909464953
 30
0.0
 11
3721.028049422111
 21
1833.345575141722
 31
0.0
  0
LINE
  5
4A4
330
761
100
AcDbEntity
  8
0
 62
     0
100
AcDbLine
 10
3611.099383745344
 20
1741.09457899462
 30
0.0
 11
3703.350379892444
 21
1833.34557514172
 31
0.0
  0
LINE
  5
4A5
330
761
100
AcDbEntity
  8
0
 62
     0
100
AcDbLine
 10
3611.099383745343
 20
1758.772248524283
 30
0.0
 11
3685.67271036278
 21
1833.34557514172
 31
0.0
  0
LINE
  5
4A6
330
761
100
AcDbEntity
  8
0
 62
     0
100
AcDbLine
 10
3611.099383745342
 20
1776.449918053944
 30
0.0
 11
3667.995040833119
 21
1833.34557514172
 31
0.0
  0
LINE
  5
4A7
330
761
100
AcDbEntity
  8
0
 62
     0
100
AcDbLine
 10
3611.099383745342
 20
1794.127587583607
 30
0.0
 11
3650.317371303453
 21
1833.345575141718
 31
0.0
  0
LINE
  5
4A8
330
761
100
AcDbEntity
  8
0
 62
     0
100
AcDbLine
 10
3611.099383745343
 20
1811.805257113272
 30
0.0
 11
3632.639701773789
 21
1833.345575141718
 31
0.0
  0
LINE
  5
4A9
330
761
100
AcDbEntity
  8
0
 62
     0
100
AcDbLine
 10
3611.099383745342
 20
1829.482926642935
 30
0.0
 11
3614.962032244126
 21
1833.34557514172
 31
0.0
  0
ENDBLK
  5
4AB
330
761
100
AcDbEntity
  8
0
100
AcDbBlockEnd
  0
BLOCK
  5
764
330
763
100
AcDbEntity
  8
0
100
AcDbBlockBegin
  2
*U17
 70
     1
 10
0.0
 20
0.0
 30
0.0
  3
*U17
  1

  0
TEXT
  5
4AD
330
763
100
AcDbEntity
  8
CS-DIML
100
AcDbText
 10
8836.60629689507
 20
1378.235398144461
 30
0.0
 40
135.0
  1
피 복
 50
90.0
  7
GHS
100
AcDbText
  0
ENDBLK
  5
4AF
330
763
100
AcDbEntity
  8
0
100
AcDbBlockEnd
  0
BLOCK
  5
766
330
765
100
AcDbEntity
  8
0
100
AcDbBlockBegin
  2
*U18
 70
     1
 10
0.0
 20
0.0
 30
0.0
  3
*U18
  1

  0
TEXT
  5
4B1
330
765
100
AcDbEntity
  8
CS-DIML
100
AcDbText
 10
8575.835115116888
 20
2102.319150016976
 30
0.0
 40
135.0
  1
유효간격(D)
 50
90.0
  7
GHS
100
AcDbText
  0
ENDBLK
  5
4B3
330
765
100
AcDbEntity
  8
0
100
AcDbBlockEnd
  0
BLOCK
  5
768
330
767
100
AcDbEntity
  8
0
100
AcDbBlockBegin
  2
BLOCK_SHEAR_DETAIL
 70
     0
 10
0.0
 20
0.0
 30
0.0
  3
BLOCK_SHEAR_DETAIL
  1

  0
CIRCLE
  5
64B
330
767
100
AcDbEntity
  8
CS-BARC
100
AcDbCircle
 10
802.7672513043508
 20
3323.988248440903
 30
338.8460519809347
 40
72.0
  0
CIRCLE
  5
64C
330
767
100
AcDbEntity
  8
CS-BARC
100
AcDbCircle
 10
2307.767251304351
 20
3323.988248440903
 30
338.8460519809347
 40
72.0
  0
CIRCLE
  5
64D
330
767
100
AcDbEntity
  8
CS-BARC
100
AcDbCircle
 10
3813.364668154159
 20
3324.210841356777
 30
338.8460519809347
 40
72.0
  0
CIRCLE
  5
64E
330
767
100
AcDbEntity
  8
CS-BARC
100
AcDbCircle
 10
5318.364668154156
 20
3324.210841356777
 30
338.8460519809347
 40
72.0
  0
CIRCLE
  5
64F
330
767
100
AcDbEntity
  8
CS-BARC
100
AcDbCircle
 10
6823.364668154157
 20
3324.210841356777
 30
338.8460519809347
 40
72.0
  0
CIRCLE
  5
650
330
767
100
AcDbEntity
  8
CS-BARC
100
AcDbCircle
 10
6821.272033354269
 20
1873.07324445527
 30
338.8460519809347
 40
72.0
  0
CIRCLE
  5
651
330
767
100
AcDbEntity
  8
CS-BARC
100
AcDbCircle
 10
5318.364668154156
 20
1866.210841356776
 30
338.8460519809347
 40
72.0
  0
CIRCLE
  5
652
330
767
100
AcDbEntity
  8
CS-BARC
100
AcDbCircle
 10
3813.364668154159
 20
1866.210841356776
 30
338.8460519809347
 40
72.0
  0
CIRCLE
  5
653
330
767
100
AcDbEntity
  8
CS-BARC
100
AcDbCircle
 10
2331.578887382523
 20
1866.674426552373
 30
338.8460519809347
 40
72.0
  0
CIRCLE
  5
654
330
767
100
AcDbEntity
  8
CS-BARC
100
AcDbCircle
 10
801.2720333542674
 20
1873.07324445527
 30
338.8460519809347
 40
72.0
  0
LINE
  5
655
330
767
100
AcDbEntity
  8
CS-DIML
100
AcDbLine
 10
8228.397749748081
 20
1753.783020365517
 30
0.0
 11
8675.569559777157
 21
1753.783020365517
 31
0.0
  0
LINE
  5
656
330
767
100
AcDbEntity
  8
CS-DIML
100
AcDbLine
 10
8228.397749748081
 20
1753.783020365517
 30
0.0
 11
8675.569559777157
 21
1753.783020365517
 31
0.0
  0
LINE
  5
657
330
767
100
AcDbEntity
  8
CS-DIML
100
AcDbLine
 10
8228.397749748081
 20
1433.000275923405
 30
0.0
 11
8675.569559777157
 21
1433.000275923405
 31
0.0
  0
LINE
  5
658
330
767
100
AcDbEntity
  8
CS-DIML
100
AcDbLine
 10
8228.397749748081
 20
3437.640993954148
 30
0.0
 11
8675.569559777157
 21
3437.640993954148
 31
0.0
  0
INSERT
  5
659
330
767
100
AcDbEntity
  8
0
100
AcDbBlockReference
  2
*U18
 10
0.0
 20
0.0
 30
0.0
  0
LINE
  5
65A
330
767
100
AcDbEntity
  8
CS-DIML
100
AcDbLine
 10
8625.569559777153
 20
3437.640993954148
 30
0.0
 11
8625.569559777153
 21
1753.783020365517
 31
0.0
  0
INSERT
  5
65B
330
767
100
AcDbEntity
  8
CS-DIML
100
AcDbBlockReference
  2
_DOTSMALL
 10
8625.569559777153
 20
1433.000275923405
 30
0.0
 41
200.0
 42
200.0
 43
200.0
 50
90.0
  0
LINE
  5
65C
330
767
100
AcDbEntity
  8
CS-DIML
100
AcDbLine
 10
8625.569559777153
 20
1753.783020365517
 30
0.0
 11
8625.569559777153
 21
1433.000275923405
 31
0.0
  0
INSERT
  5
65D
330
767
100
AcDbEntity
  8
0
100
AcDbBlockReference
  2
*U17
 10
0.0
 20
0.0
 30
0.0
  0
INSERT
  5
65E
330
767
100
AcDbEntity
  8
CS-DIML
100
AcDbBlockReference
  2
_DOTSMALL
 10
8625.569559777153
 20
1753.783020365517
 30
0.0
 41
200.0
 42
200.0
 43
200.0
 50
270.0
  0
LINE
  5
65F
330
767
100
AcDbEntity
  8
CS-DIML
100
AcDbLine
 10
8625.569559777153
 20
1753.783020365517
 30
0.0
 11
8625.569559777153
 21
1953.783020365517
 31
0.0
  0
INSERT
  5
660
330
767
100
AcDbEntity
  8
CS-DIML
100
AcDbBlockReference
  2
_DOTSMALL
 10
8625.569559777153
 20
1753.783020365517
 30
0.0
 41
200.0
 42
200.0
 43
200.0
 50
270.0
  0
INSERT
  5
661
330
767
100
AcDbEntity
  8
CS-DIML
100
AcDbBlockReference
  2
_DOTSMALL
 10
8625.569559777153
 20
3437.640993954148
 30
0.0
 41
200.0
 42
200.0
 43
200.0
 50
90.0
  0
LINE
  5
662
330
767
100
AcDbEntity
  8
CS-HATH
100
AcDbLine
 10
2443.224943662062
 20
984.6027180505915
 30
0.0
 11
2891.622501533479
 21
1433.000275923405
 31
0.0
  0
LINE
  5
663
330
767
100
AcDbEntity
  8
CS-HATH
100
AcDbLine
 10
2620.001638958231
 20
984.6027180505915
 30
0.0
 11
3068.39919683151
 21
1433.000275923405
 31
0.0
  0
LINE
  5
664
330
767
100
AcDbEntity
  8
CS-HATH
100
AcDbLine
 10
2796.778334254399
 20
984.6027180505915
 30
0.0
 11
3245.175892127678
 21
1433.000275923405
 31
0.0
  0
LINE
  5
665
330
767
100
AcDbEntity
  8
CS-DIML
100
AcDbLine
 10
2226.602887379006
 20
2635.735785340425
 30
0.0
 11
6430.269883519038
 21
2635.732985069044
 31
0.0
  0
LINE
  5
666
330
767
100
AcDbEntity
  8
CS-DIML
100
AcDbLine
 10
3809.420314500108
 20
3310.249922114425
 30
0.0
 11
2784.937987402082
 21
4059.976317241788
 31
0.0
  0
LINE
  5
667
330
767
100
AcDbEntity
  8
CS-DIML
100
AcDbLine
 10
3710.003202067689
 20
4059.976317241788
 30
0.0
 11
2784.937987402082
 21
4059.976317241788
 31
0.0
  0
LINE
  5
668
330
767
100
AcDbEntity
  8
CS-HATH
100
AcDbLine
 10
2089.671553067863
 20
984.6027180505915
 30
0.0
 11
2538.069110941142
 21
1433.000275923405
 31
0.0
  0
LINE
  5
669
330
767
100
AcDbEntity
  8
CS-HATH
100
AcDbLine
 10
2266.448248364032
 20
984.6027180505915
 30
0.0
 11
2714.845806237311
 21
1433.000275923405
 31
0.0
  0
SOLID
  5
66A
330
767
100
AcDbEntity
  8
CS-DIML
100
AcDbTrace
 10
2327.7329513859
 20
3339.857041759882
 30
0.0
 11
2395.060365172103
 21
3554.547561700923
 31
0.0
 12
2444.222913619131
 22
3523.334170394111
 32
0.0
 13
2444.222913619131
 23
3523.334170394111
 33
0.0
  0
SOLID
  5
66B
330
767
100
AcDbEntity
  8
CS-DIML
100
AcDbTrace
 10
2226.602887379006
 20
2635.735785340425
 30
0.0
 11
2443.936237087473
 21
2693.969925712329
 31
0.0
 12
2443.936198294163
 22
2635.735640564002
 32
0.0
 13
2443.936198294163
 23
2635.735640564002
 33
0.0
  0
LINE
  5
66C
330
767
100
AcDbEntity
  8
CS-DIML
100
AcDbLine
 10
2327.7329513859
 20
3339.857041759882
 30
0.0
 11
2784.937987402082
 21
4059.976317241788
 31
0.0
  0
TEXT
  5
66D
330
767
100
AcDbEntity
  8
CS-DIML
100
AcDbText
 10
6637.054323589429
 20
4008.257119779941
 30
0.0
 40
125.0
  1
배 력 철 근
  7
GHS
100
AcDbText
  0
LINE
  5
66E
330
767
100
AcDbEntity
  8
CS-DIML
100
AcDbLine
 10
7634.288652246819
 20
3948.579905371648
 30
0.0
 11
6534.257081955671
 21
3948.579905371648
 31
0.0
  0
LINE
  5
66F
330
767
100
AcDbEntity
  8
CS-HATH
100
AcDbLine
 10
4741.321982517838
 20
984.6027180505915
 30
0.0
 11
5189.719540391117
 21
1433.000275923405
 31
0.0
  0
LINE
  5
670
330
767
100
AcDbEntity
  8
CS-HATH
100
AcDbLine
 10
4918.098677814007
 20
984.6027180505915
 30
0.0
 11
5366.496235687286
 21
1433.000275923405
 31
0.0
  0
LINE
  5
671
330
767
100
AcDbEntity
  8
CS-BARX
100
AcDbLine
 10
4011.444682965055
 20
1561.172925517894
 30
0.0
 11
4011.444682965055
 21
1433.000275923405
 31
0.0
  0
ARC
  5
672
330
767
100
AcDbEntity
  8
CS-BARX
100
AcDbCircle
 10
3811.272033354267
 20
1433.000275923405
 30
0.0
 40
72.00000000000004
100
AcDbArc
 50
0.0
 51
180.0
  0
LINE
  5
673
330
767
100
AcDbEntity
  8
CS-BARX
100
AcDbLine
 10
3611.099383745343
 20
1561.172925517894
 30
0.0
 11
3611.099383745343
 21
1433.000275923405
 31
0.0
  0
INSERT
  5
674
330
767
100
AcDbEntity
  8
CS-BARX
  6
Continuous
100
AcDbBlockReference
  2
*X16
 10
0.0
 20
0.0
 30
0.0
1001
ACAD
1000
HATCH
1002
{
1070
    19
1000
ANSI31
1040
100.0
1040
0.0
1000
R14_HATCH_DATA
1000
2D7
1011
1.0
1021
0.0
1031
0.0
1011
0.0
1021
1.0
1031
0.0
1011
0.0
1021
0.0
1031
1.0
1040
0.0
1010
0.0
1020
0.0
1030
1.0
1000
ANSI31
1070
     0
1070
     0
1071
        1
1071
        7
1070
     1
1070
     1
1071
       12
1040
3883.272033354268
1040
1433.000275923405
1040
0.0
1040
4011.444682965055
1040
1433.000275923405
1040
0.0
1040
4011.444682965055
1040
1561.172925561666
1040
-1.0
1040
4011.444682965055
1040
1705.172925561666
1040
0.0
1040
4011.444682965055
1040
1833.34557514172
1040
0.0
1040
3883.272033354268
1040
1833.34557514172
1040
-1.0
1040
3739.272033354268
1040
1833.34557514172
1040
0.0
1040
3611.099383745343
1040
1833.34557514172
1040
0.0
1040
3611.099383745343
1040
1705.172925561666
1040
-1.0
1040
3611.099383745343
1040
1561.172925561666
1040
0.0
1040
3611.099383745343
1040
1433.000275923405
1040
0.0
1040
3739.272033354268
1040
1433.000275923405
1040
-1.0
1071
        0
1070
     0
1070
     1
1040
0.0
1040
100.0
1070
     0
1070
     1
1040
0.7853981633974483
1040
-14905.67315756529
1040
-2226.955939402804
1040
-8.838834764831837
1040
8.838834764831837
1070
     0
1040
2.075233593893158
1071
        1
1040
3770.666868068277
1040
1578.547832243144
1040
0.0
1002
}
  0
LINE
  5
675
330
767
100
AcDbEntity
  8
CS-HATH
100
AcDbLine
 10
3327.108420144766
 20
984.6027180505915
 30
0.0
 11
3775.505978018045
 21
1433.000275923405
 31
0.0
  0
LINE
  5
676
330
767
100
AcDbEntity
  8
CS-BARX
100
AcDbLine
 10
4011.444682965055
 20
1433.000275923405
 30
0.0
 11
3883.272033369169
 21
1433.000275923405
 31
0.0
  0
LINE
  5
677
330
767
100
AcDbEntity
  8
CS-BARX
100
AcDbLine
 10
3739.272033354268
 20
1433.000275923405
 30
0.0
 11
3611.099383760244
 21
1433.000275923405
 31
0.0
  0
LINE
  5
678
330
767
100
AcDbEntity
  8
CS-HATH
100
AcDbLine
 10
3503.885115440935
 20
984.6027180505915
 30
0.0
 11
3952.282673314215
 21
1433.000275923405
 31
0.0
  0
LINE
  5
679
330
767
100
AcDbEntity
  8
CS-HATH
100
AcDbLine
 10
3680.661810737103
 20
984.6027180505915
 30
0.0
 11
4129.059368610383
 21
1433.000275923405
 31
0.0
  0
LINE
  5
67A
330
767
100
AcDbEntity
  8
CS-HATH
100
AcDbLine
 10
3857.438506035134
 20
984.6027180505915
 30
0.0
 11
4305.83606390655
 21
1433.000275923405
 31
0.0
  0
LINE
  5
67B
330
767
100
AcDbEntity
  8
CS-HATH
100
AcDbLine
 10
4034.215201331302
 20
984.6027180505915
 30
0.0
 11
4482.612759204581
 21
1433.000275923405
 31
0.0
  0
LINE
  5
67C
330
767
100
AcDbEntity
  8
CS-HATH
100
AcDbLine
 10
4210.991896627471
 20
984.6027180505915
 30
0.0
 11
4659.389454500749
 21
1433.000275923405
 31
0.0
  0
LINE
  5
67D
330
767
100
AcDbEntity
  8
CS-HATH
100
AcDbLine
 10
4387.768591923639
 20
984.6027180505915
 30
0.0
 11
4836.166149796918
 21
1433.000275923405
 31
0.0
  0
LINE
  5
67E
330
767
100
AcDbEntity
  8
CS-HATH
100
AcDbLine
 10
4564.54528722167
 20
984.6027180505915
 30
0.0
 11
5012.942845093086
 21
1433.000275923405
 31
0.0
  0
LINE
  5
67F
330
767
100
AcDbEntity
  8
CS-BARX
100
AcDbLine
 10
4011.444682965055
 20
1833.34557514172
 30
0.0
 11
4011.444682965055
 21
1705.172925547231
 31
0.0
  0
LINE
  5
680
330
767
100
AcDbEntity
  8
CS-BARX
100
AcDbLine
 10
3611.099383745343
 20
1833.34557514172
 30
0.0
 11
3611.099383745343
 21
1705.172925547231
 31
0.0
  0
ARC
  5
681
330
767
100
AcDbEntity
  8
CS-BARX
100
AcDbCircle
 10
3811.272033354267
 20
1833.34557514172
 30
0.0
 40
72.00000000000004
100
AcDbArc
 50
180.0
 51
0.0
  0
LINE
  5
682
330
767
100
AcDbEntity
  8
CS-BARX
100
AcDbLine
 10
3739.272033369168
 20
1833.34557514172
 30
0.0
 11
3611.099383745343
 21
1833.34557514172
 31
0.0
  0
LINE
  5
683
330
767
100
AcDbEntity
  8
CS-BARX
100
AcDbLine
 10
4011.444682965055
 20
1833.34557514172
 30
0.0
 11
3883.272033369169
 21
1833.34557514172
 31
0.0
  0
ARC
  5
684
330
767
100
AcDbEntity
  8
CS-BARX
100
AcDbCircle
 10
4011.444682965055
 20
1633.172925561666
 30
0.0
 40
72.00000000000004
100
AcDbArc
 50
90.0
 51
270.0
  0
ARC
  5
685
330
767
100
AcDbEntity
  8
CS-BARX
100
AcDbCircle
 10
3611.099383745343
 20
1633.172925561666
 30
0.0
 40
72.00000000000004
100
AcDbArc
 50
270.0
 51
90.0
  0
LINE
  5
686
330
767
100
AcDbEntity
  8
CS-BARX
100
AcDbLine
 10
7021.444682965055
 20
1561.172925517894
 30
0.0
 11
7021.444682965055
 21
1433.000275923405
 31
0.0
  0
ARC
  5
687
330
767
100
AcDbEntity
  8
CS-BARX
100
AcDbCircle
 10
6821.272033354269
 20
1433.000275923405
 30
0.0
 40
72.00000000000004
100
AcDbArc
 50
0.0
 51
180.0
  0
LINE
  5
688
330
767
100
AcDbEntity
  8
CS-BARX
100
AcDbLine
 10
6621.099383745344
 20
1561.172925517894
 30
0.0
 11
6621.099383745344
 21
1433.000275923405
 31
0.0
  0
INSERT
  5
689
330
767
100
AcDbEntity
  8
CS-BARX
  6
Continuous
100
AcDbBlockReference
  2
*X15
 10
0.0
 20
0.0
 30
0.0
1001
ACAD
1000
HATCH
1002
{
1070
    19
1000
ANSI31
1040
100.0
1040
0.0
1000
R14_HATCH_DATA
1000
2C2
1011
1.0
1021
0.0
1031
0.0
1011
0.0
1021
1.0
1031
0.0
1011
0.0
1021
0.0
1031
1.0
1040
0.0
1010
0.0
1020
0.0
1030
1.0
1000
ANSI31
1070
     0
1070
     0
1071
        1
1071
        7
1070
     1
1070
     1
1071
       12
1040
6893.272033354269
1040
1433.000275923405
1040
0.0
1040
7021.444682965055
1040
1433.000275923405
1040
0.0
1040
7021.444682965055
1040
1561.172925561666
1040
-1.0
1040
7021.444682965055
1040
1705.172925561666
1040
0.0
1040
7021.444682965055
1040
1833.34557514172
1040
0.0
1040
6893.272033354269
1040
1833.34557514172
1040
-1.0
1040
6749.272033354268
1040
1833.34557514172
1040
0.0
1040
6621.099383745344
1040
1833.34557514172
1040
0.0
1040
6621.099383745344
1040
1705.172925561666
1040
-1.0
1040
6621.099383745344
1040
1561.172925561666
1040
0.0
1040
6621.099383745344
1040
1433.000275923405
1040
0.0
1040
6749.272033354268
1040
1433.000275923405
1040
-1.0
1071
        0
1070
     0
1070
     1
1040
0.0
1040
100.0
1070
     0
1070
     1
1040
0.7853981633974483
1040
-11895.67315756529
1040
-2226.955939402804
1040
-8.838834764831837
1040
8.838834764831837
1070
     0
1040
2.075233593893158
1071
        1
1040
6780.666868068277
1040
1578.547832243144
1040
0.0
1002
}
  0
LINE
  5
68A
330
767
100
AcDbEntity
  8
CS-BARX
100
AcDbLine
 10
6749.272033354268
 20
1433.000275923405
 30
0.0
 11
6621.099383760244
 21
1433.000275923405
 31
0.0
  0
LINE
  5
68B
330
767
100
AcDbEntity
  8
CS-HATH
100
AcDbLine
 10
6332.312240187079
 20
984.6027180505915
 30
0.0
 11
6780.709798060357
 21
1433.000275923405
 31
0.0
  0
LINE
  5
68C
330
767
100
AcDbEntity
  8
CS-HATH
100
AcDbLine
 10
6509.088935483247
 20
984.6027180505915
 30
0.0
 11
6957.486493356526
 21
1433.000275923405
 31
0.0
  0
LINE
  5
68D
330
767
100
AcDbEntity
  8
CS-HATH
100
AcDbLine
 10
6685.865630781278
 20
984.6027180505915
 30
0.0
 11
7134.263188652695
 21
1433.000275923405
 31
0.0
  0
LINE
  5
68E
330
767
100
AcDbEntity
  8
CS-HATH
100
AcDbLine
 10
5094.875373110175
 20
984.6027180505915
 30
0.0
 11
5543.272930983455
 21
1433.000275923405
 31
0.0
  0
LINE
  5
68F
330
767
100
AcDbEntity
  8
CS-HATH
100
AcDbLine
 10
5271.652068408206
 20
984.6027180505915
 30
0.0
 11
5720.049626279621
 21
1433.000275923405
 31
0.0
  0
LINE
  5
690
330
767
100
AcDbEntity
  8
CS-HATH
100
AcDbLine
 10
5448.428763704374
 20
984.6027180505915
 30
0.0
 11
5896.826321577652
 21
1433.000275923405
 31
0.0
  0
LINE
  5
691
330
767
100
AcDbEntity
  8
CS-HATH
100
AcDbLine
 10
5625.205459000543
 20
984.6027180505915
 30
0.0
 11
6073.603016873821
 21
1433.000275923405
 31
0.0
  0
LINE
  5
692
330
767
100
AcDbEntity
  8
CS-HATH
100
AcDbLine
 10
5801.982154296712
 20
984.6027180505915
 30
0.0
 11
6250.379712169991
 21
1433.000275923405
 31
0.0
  0
LINE
  5
693
330
767
100
AcDbEntity
  8
CS-HATH
100
AcDbLine
 10
5978.758849594743
 20
984.6027180505915
 30
0.0
 11
6427.156407466158
 21
1433.000275923405
 31
0.0
  0
LINE
  5
694
330
767
100
AcDbEntity
  8
CS-HATH
100
AcDbLine
 10
6155.535544890909
 20
984.6027180505915
 30
0.0
 11
6603.933102764189
 21
1433.000275923405
 31
0.0
  0
LINE
  5
695
330
767
100
AcDbEntity
  8
CS-BARX
100
AcDbLine
 10
7021.444682965055
 20
1433.000275923405
 30
0.0
 11
6893.272033369169
 21
1433.000275923405
 31
0.0
  0
LINE
  5
696
330
767
100
AcDbEntity
  8
CS-HATH
100
AcDbLine
 10
6862.642326077446
 20
984.6027180505915
 30
0.0
 11
7311.039883950726
 21
1433.000275923405
 31
0.0
  0
LINE
  5
697
330
767
100
AcDbEntity
  8
CS-HATH
100
AcDbLine
 10
7039.419021373615
 20
984.6027180505915
 30
0.0
 11
7487.816579246893
 21
1433.000275923405
 31
0.0
  0
LINE
  5
698
330
767
100
AcDbEntity
  8
CS-HATH
100
AcDbLine
 10
7216.195716669783
 20
984.6027180505915
 30
0.0
 11
7664.593274543062
 21
1433.000275923405
 31
0.0
  0
LINE
  5
699
330
767
100
AcDbEntity
  8
CS-HATH
100
AcDbLine
 10
7392.972411967814
 20
984.6027180505915
 30
0.0
 11
7723.688108853997
 21
1315.318414936308
 31
0.0
  0
LINE
  5
69A
330
767
100
AcDbEntity
  8
CS-HATH
100
AcDbLine
 10
7569.749107263982
 20
984.6027180505915
 30
0.0
 11
7723.688108853997
 21
1138.541719639674
 31
0.0
  0
LINE
  5
69B
330
767
100
AcDbEntity
  8
CS-BARX
100
AcDbLine
 10
6749.27203336917
 20
1833.34557514172
 30
0.0
 11
6621.099383745344
 21
1833.34557514172
 31
0.0
  0
ARC
  5
69C
330
767
100
AcDbEntity
  8
CS-BARX
100
AcDbCircle
 10
6621.099383745344
 20
1633.172925561666
 30
0.0
 40
72.00000000000004
100
AcDbArc
 50
270.0
 51
90.0
  0
LINE
  5
69D
330
767
100
AcDbEntity
  8
CS-BARX
100
AcDbLine
 10
6621.099383745344
 20
1833.34557514172
 30
0.0
 11
6621.099383745344
 21
1705.172925547231
 31
0.0
  0
LINE
  5
69E
330
767
100
AcDbEntity
  8
CS-BARX
100
AcDbLine
 10
7021.444682965055
 20
1833.34557514172
 30
0.0
 11
7021.444682965055
 21
1705.172925547231
 31
0.0
  0
ARC
  5
69F
330
767
100
AcDbEntity
  8
CS-BARX
100
AcDbCircle
 10
6821.272033354269
 20
1833.34557514172
 30
0.0
 40
72.00000000000004
100
AcDbArc
 50
180.0
 51
0.0
  0
LINE
  5
6A0
330
767
100
AcDbEntity
  8
CS-BARX
100
AcDbLine
 10
7021.444682965055
 20
1833.34557514172
 30
0.0
 11
6893.272033369169
 21
1833.34557514172
 31
0.0
  0
ARC
  5
6A1
330
767
100
AcDbEntity
  8
CS-BARX
100
AcDbCircle
 10
7021.444682965055
 20
1633.172925561666
 30
0.0
 40
72.00000000000004
100
AcDbArc
 50
90.0
 51
270.0
  0
TEXT
  5
6A2
330
767
100
AcDbEntity
  8
CS-DIML
100
AcDbText
 10
6409.561302781106
 20
2685.12787487777
 30
0.0
 40
125.0
  1
전 단 철 근
  7
GHS
100
AcDbText
  0
LINE
  5
6A3
330
767
100
AcDbEntity
  8
CS-DIML
100
AcDbLine
 10
7355.335098186507
 20
2635.732985069044
 30
0.0
 11
6430.269883519038
 21
2635.732985069044
 31
0.0
  0
SOLID
  5
6A4
330
767
100
AcDbEntity
  8
CS-DIML
100
AcDbTrace
 10
6071.398240432143
 20
3219.555622281506
 30
0.0
 11
6138.72565422021
 21
3434.246142223012
 31
0.0
 12
6187.888202667236
 22
3403.032750915736
 32
0.0
 13
6187.888202667236
 23
3403.032750915736
 33
0.0
  0
SOLID
  5
6A5
330
767
100
AcDbEntity
  8
CS-DIML
100
AcDbTrace
 10
5491.520787378773
 20
2635.735785340425
 30
0.0
 11
5708.854137087239
 21
2693.969925712329
 31
0.0
 12
5708.854098293929
 22
2635.735640564002
 32
0.0
 13
5708.854098293929
 23
2635.735640564002
 33
0.0
  0
SOLID
  5
6A6
330
767
100
AcDbEntity
  8
CS-DIML
100
AcDbTrace
 10
3809.420314500108
 20
3310.249922114425
 30
0.0
 11
3668.425392961129
 21
3485.593676209453
 31
0.0
 12
3634.034323278815
 22
3438.599141497631
 32
0.0
 13
3634.034323278815
 23
3438.599141497631
 33
0.0
  0
LINE
  5
6A7
330
767
100
AcDbEntity
  8
CS-DIML
100
AcDbLine
 10
6071.398240432143
 20
3219.555622281506
 30
0.0
 11
6534.257081955671
 21
3948.579905371648
 31
0.0
  0
LINE
  5
6A8
330
767
100
AcDbEntity
  8
CS-HATH
100
AcDbLine
 10
2973.555029550567
 20
984.6027180505915
 30
0.0
 11
3421.952587423847
 21
1433.000275923405
 31
0.0
  0
LINE
  5
6A9
330
767
100
AcDbEntity
  8
CS-HATH
100
AcDbLine
 10
3150.331724848598
 20
984.6027180505915
 30
0.0
 11
3598.729282720016
 21
1433.000275923405
 31
0.0
  0
TEXT
  5
6AA
330
767
100
AcDbEntity
  8
CS-DIML
100
AcDbText
 10
2887.73522903584
 20
4088.805135185364
 30
0.0
 40
125.0
  1
주 철 근
  7
GHS
100
AcDbText
  0
TEXT
  5
6AB
330
767
100
AcDbEntity
  8
CS-TBTC
100
AcDbText
 10
2588.545836623759
 20
-0.0000070445239544
 30
0.0
 40
125.0
  1
CHAIR BLOCK을 충분히 배치하여야 한다.
  7
GHS
100
AcDbText
  0
LINE
  5
6AC
330
767
100
AcDbEntity
  8
CS-HATH
100
AcDbLine
 10
143.1445697508751
 20
1159.396078292746
 30
0.0
 11
416.7487673815339
 21
1433.000275923405
 31
0.0
  0
LINE
  5
6AD
330
767
100
AcDbEntity
  8
CS-HATH
100
AcDbLine
 10
145.1279048044234
 20
984.6027180505915
 30
0.0
 11
593.525462677702
 21
1433.000275923405
 31
0.0
  0
LINE
  5
6AE
330
767
100
AcDbEntity
  8
CS-HATH
100
AcDbLine
 10
143.1445697508751
 20
1336.17277358938
 30
0.0
 11
239.9720720853657
 21
1433.000275923405
 31
0.0
  0
LINE
  5
6AF
330
767
100
AcDbEntity
  8
CS-HATH
100
AcDbLine
 10
1382.564771881327
 20
984.6027180505915
 30
0.0
 11
1830.962329754605
 21
1433.000275923405
 31
0.0
  0
LINE
  5
6B0
330
767
100
AcDbEntity
  8
CS-HATH
100
AcDbLine
 10
1559.341467177495
 20
984.6027180505915
 30
0.0
 11
2007.739025050774
 21
1433.000275923405
 31
0.0
  0
LINE
  5
6B1
330
767
100
AcDbEntity
  8
CS-BARX
100
AcDbLine
 10
1001.444682965055
 20
1561.172925517894
 30
0.0
 11
1001.444682965055
 21
1433.000275923405
 31
0.0
  0
ARC
  5
6B2
330
767
100
AcDbEntity
  8
CS-BARX
100
AcDbCircle
 10
801.2720333542674
 20
1433.000275923405
 30
0.0
 40
72.00000000000004
100
AcDbArc
 50
0.0
 51
180.0
  0
LINE
  5
6B3
330
767
100
AcDbEntity
  8
CS-BARX
100
AcDbLine
 10
601.0993837453423
 20
1561.172925517894
 30
0.0
 11
601.0993837453423
 21
1433.000275923405
 31
0.0
  0
INSERT
  5
6B4
330
767
100
AcDbEntity
  8
CS-BARX
  6
Continuous
100
AcDbBlockReference
  2
*X14
 10
0.0
 20
0.0
 30
0.0
1001
ACAD
1000
HATCH
1002
{
1070
    19
1000
ANSI31
1040
100.0
1040
0.0
1000
R14_HATCH_DATA
1000
297
1011
1.0
1021
0.0
1031
0.0
1011
0.0
1021
1.0
1031
0.0
1011
0.0
1021
0.0
1031
1.0
1040
0.0
1010
0.0
1020
0.0
1030
1.0
1000
ANSI31
1070
     0
1070
     0
1071
        1
1071
        7
1070
     1
1070
     1
1071
       12
1040
873.2720333542674
1040
1433.000275923405
1040
0.0
1040
1001.444682965055
1040
1433.000275923405
1040
0.0
1040
1001.444682965055
1040
1561.172925561666
1040
-1.0
1040
1001.444682965055
1040
1705.172925561666
1040
0.0
1040
1001.444682965055
1040
1833.34557514172
1040
0.0
1040
873.2720333542674
1040
1833.34557514172
1040
-1.0
1040
729.2720333542675
1040
1833.34557514172
1040
0.0
1040
601.0993837453423
1040
1833.34557514172
1040
0.0
1040
601.0993837453423
1040
1705.172925561666
1040
-1.0
1040
601.0993837453423
1040
1561.172925561666
1040
0.0
1040
601.0993837453423
1040
1433.000275923405
1040
0.0
1040
729.2720333542675
1040
1433.000275923405
1040
-1.0
1071
        0
1070
     0
1070
     1
1040
0.0
1040
100.0
1070
     0
1070
     1
1040
0.7853981633974483
1040
-17915.67315756529
1040
-2226.955939402804
1040
-8.838834764831837
1040
8.838834764831837
1070
     0
1040
2.075233593893158
1071
        1
1040
760.6668680682777
1040
1578.547832243144
1040
0.0
1002
}
  0
LINE
  5
6B5
330
767
100
AcDbEntity
  8
CS-BARX
100
AcDbLine
 10
1001.444682965055
 20
1433.000275923405
 30
0.0
 11
873.2720333691688
 21
1433.000275923405
 31
0.0
  0
LINE
  5
6B6
330
767
100
AcDbEntity
  8
CS-BARX
100
AcDbLine
 10
729.2720333542675
 20
1433.000275923405
 30
0.0
 11
601.0993837602436
 21
1433.000275923405
 31
0.0
  0
LINE
  5
6B7
330
767
100
AcDbEntity
  8
CS-HATH
100
AcDbLine
 10
321.9046001024544
 20
984.6027180505915
 30
0.0
 11
770.3021579738705
 21
1433.000275923405
 31
0.0
  0
LINE
  5
6B8
330
767
100
AcDbEntity
  8
CS-HATH
100
AcDbLine
 10
498.6812953986225
 20
984.6027180505915
 30
0.0
 11
947.0788532719009
 21
1433.000275923405
 31
0.0
  0
LINE
  5
6B9
330
767
100
AcDbEntity
  8
CS-HATH
100
AcDbLine
 10
675.4579906947911
 20
984.6027180505915
 30
0.0
 11
1123.85554856807
 21
1433.000275923405
 31
0.0
  0
LINE
  5
6BA
330
767
100
AcDbEntity
  8
CS-HATH
100
AcDbLine
 10
852.2346859909593
 20
984.6027180505915
 30
0.0
 11
1300.632243864238
 21
1433.000275923405
 31
0.0
  0
LINE
  5
6BB
330
767
100
AcDbEntity
  8
CS-HATH
100
AcDbLine
 10
1029.01138128899
 20
984.6027180505915
 30
0.0
 11
1477.408939160407
 21
1433.000275923405
 31
0.0
  0
LINE
  5
6BC
330
767
100
AcDbEntity
  8
CS-HATH
100
AcDbLine
 10
1205.788076585158
 20
984.6027180505915
 30
0.0
 11
1654.185634458437
 21
1433.000275923405
 31
0.0
  0
LINE
  5
6BD
330
767
100
AcDbEntity
  8
CS-BARX
100
AcDbLine
 10
1001.444682965055
 20
1833.34557514172
 30
0.0
 11
1001.444682965055
 21
1705.172925547231
 31
0.0
  0
LINE
  5
6BE
330
767
100
AcDbEntity
  8
CS-BARX
100
AcDbLine
 10
601.0993837453423
 20
1833.34557514172
 30
0.0
 11
601.0993837453423
 21
1705.172925547231
 31
0.0
  0
ARC
  5
6BF
330
767
100
AcDbEntity
  8
CS-BARX
100
AcDbCircle
 10
801.2720333542674
 20
1833.34557514172
 30
0.0
 40
72.00000000000004
100
AcDbArc
 50
180.0
 51
0.0
  0
LINE
  5
6C0
330
767
100
AcDbEntity
  8
CS-BARX
100
AcDbLine
 10
729.2720333691687
 20
1833.34557514172
 30
0.0
 11
601.0993837453423
 21
1833.34557514172
 31
0.0
  0
LINE
  5
6C1
330
767
100
AcDbEntity
  8
CS-BARX
100
AcDbLine
 10
1001.444682965055
 20
1833.34557514172
 30
0.0
 11
873.2720333691688
 21
1833.34557514172
 31
0.0
  0
ARC
  5
6C2
330
767
100
AcDbEntity
  8
CS-BARX
100
AcDbCircle
 10
1001.444682965055
 20
1633.172925561666
 30
0.0
 40
72.00000000000004
100
AcDbArc
 50
90.0
 51
270.0
  0
ARC
  5
6C3
330
767
100
AcDbEntity
  8
CS-BARX
100
AcDbCircle
 10
601.0993837453423
 20
1633.172925561666
 30
0.0
 40
72.00000000000004
100
AcDbArc
 50
270.0
 51
90.0
  0
LINE
  5
6C4
330
767
100
AcDbEntity
  8
CS-BARC
100
AcDbLine
 10
7723.688108853997
 20
1433.000275923405
 30
0.0
 11
143.1445697508751
 21
1433.000275923405
 31
0.0
  0
LINE
  5
6C5
330
767
100
AcDbEntity
  8
CS-BARC
100
AcDbLine
 10
7723.688108853997
 20
984.6027180505915
 30
0.0
 11
143.1445697508751
 21
984.6027180505915
 31
0.0
  0
TEXT
  5
6C6
330
767
100
AcDbEntity
  8
CS-TBTC
100
AcDbText
 10
1746.890293575823
 20
325.8468950730748
 30
0.0
 40
125.0
  1
* NOTE : 시공중 주철근의 피복유지를 위하여
  7
GHS
100
AcDbText
  0
LINE
  5
6C7
330
767
100
AcDbEntity
  8
CS-HATH
100
AcDbLine
 10
1736.118162475526
 20
984.6027180505915
 30
0.0
 11
2184.515720346943
 21
1433.000275923405
 31
0.0
  0
LINE
  5
6C8
330
767
100
AcDbEntity
  8
CS-HATH
100
AcDbLine
 10
1912.894857771695
 20
984.6027180505915
 30
0.0
 11
2361.292415644974
 21
1433.000275923405
 31
0.0
  0
LINE
  5
6C9
330
767
100
AcDbEntity
  8
CS-BARC
100
AcDbLine
 10
143.1445697508751
 20
2003.393244451843
 30
338.8460519809347
 11
7724.800895934925
 21
2003.393244451843
 31
338.8460519809347
  0
LINE
  5
6CA
330
767
100
AcDbEntity
  8
CS-BARC
100
AcDbLine
 10
143.1445697508751
 20
1945.07324445527
 30
338.8460519809347
 11
7724.800895934925
 21
1945.07324445527
 31
338.8460519809347
  0
LINE
  5
6CB
330
767
100
AcDbEntity
  8
CS-BARC
100
AcDbLine
 10
143.1445697508751
 20
3188.030769861769
 30
338.8460519809347
 11
7724.800895934925
 21
3188.030769861769
 31
338.8460519809347
  0
LINE
  5
6CC
330
767
100
AcDbEntity
  8
CS-BARC
100
AcDbLine
 10
143.1445697508751
 20
3246.350769858342
 30
338.8460519809347
 11
7724.800895934925
 21
3246.350769858342
 31
338.8460519809347
  0
LINE
  5
6CD
330
767
100
AcDbEntity
  8
CS-BARC
100
AcDbLine
 10
2296.586208060384
 20
3478.464993941599
 30
338.8460519809347
 11
5345.720817510039
 21
3478.464993954171
 31
338.8460519809347
  0
LINE
  5
6CE
330
767
100
AcDbEntity
  8
CS-BARC
100
AcDbLine
 10
2803.970887379721
 20
3396.81699394947
 30
338.8460519809347
 11
5351.552817504853
 21
3396.81699394947
 31
338.8460519809347
  0
LINE
  5
6CF
330
767
100
AcDbEntity
  8
CS-BARC
100
AcDbLine
 10
2290.754887389019
 20
3396.81699394947
 30
338.8460519809347
 11
3317.186887370423
 21
3396.81699394947
 31
338.8460519809347
  0
LINE
  5
6D0
330
767
100
AcDbEntity
  8
CS-DIML
100
AcDbLine
 10
143.1445697508751
 20
2482.416216082871
 30
338.8460519809347
 11
143.1445697508751
 21
718.7121783811598
 31
338.8460519809347
  0
LINE
  5
6D1
330
767
100
AcDbEntity
  8
CS-DIML
100
AcDbLine
 10
290.0927305296061
 20
2849.953722793144
 30
338.8460519809347
 11
-0.0000133756548166
 21
2376.454194762744
 31
338.8460519809347
  0
LINE
  5
6D2
330
767
100
AcDbEntity
  8
CS-DIML
100
AcDbLine
 10
-0.0000133756548166
 20
2376.454194762744
 30
338.8460519809347
 11
143.1445697508751
 21
2482.416216082871
 31
338.8460519809347
  0
LINE
  5
6D3
330
767
100
AcDbEntity
  8
CS-DIML
100
AcDbLine
 10
143.1445697508751
 20
2708.97930689063
 30
338.8460519809347
 11
290.0927305296061
 21
2849.953722793144
 31
338.8460519809347
  0
LINE
  5
6D4
330
767
100
AcDbEntity
  8
CS-DIML
100
AcDbLine
 10
143.1445697508751
 20
3659.605646682904
 30
338.8460519809347
 11
143.1445697508751
 21
2708.97930689063
 31
338.8460519809347
  0
LINE
  5
6D5
330
767
100
AcDbEntity
  8
CS-BARC
100
AcDbLine
 10
2150.786887383088
 20
3332.664993943182
 30
338.8460519809347
 11
2150.786887383088
 21
1858.758341247216
 31
338.8460519809347
  0
LINE
  5
6D6
330
767
100
AcDbEntity
  8
CS-BARC
100
AcDbLine
 10
2226.602887379006
 20
3332.664993943182
 30
338.8460519809347
 11
2226.602887379006
 21
1858.759020370431
 31
338.8460519809347
  0
LINE
  5
6D7
330
767
100
AcDbEntity
  8
CS-BARC
100
AcDbLine
 10
2296.586208060384
 20
1712.959020372014
 30
338.8460519809347
 11
2626.602887379006
 21
1712.959020370617
 31
338.8460519809347
  0
LINE
  5
6D8
330
767
100
AcDbEntity
  8
CS-BARC
100
AcDbLine
 10
2290.754887389019
 20
1794.607020364143
 30
338.8460519809347
 11
2626.602887379006
 21
1794.607020364143
 31
338.8460519809347
  0
ARC
  5
6D9
330
767
100
AcDbEntity
  8
CS-BARC
100
AcDbCircle
 10
2296.586887380108
 20
1858.759020370431
 30
338.8460519809347
 40
145.8
100
AcDbArc
 50
180.0
 51
270.0
  0
ARC
  5
6DA
330
767
100
AcDbEntity
  8
CS-BARC
100
AcDbCircle
 10
2290.754887385293
 20
1858.759020370431
 30
338.8460519809347
 40
64.15200000000002
100
AcDbArc
 50
180.0
 51
270.0
  0
LINE
  5
6DB
330
767
100
AcDbEntity
  8
CS-BARC
100
AcDbLine
 10
2626.602887379006
 20
1794.607020364143
 30
338.8460519809347
 11
2626.602887379006
 21
1712.959020370617
 31
338.8460519809347
  0
ARC
  5
6DC
330
767
100
AcDbEntity
  8
CS-BARC
100
AcDbCircle
 10
2296.586887380108
 20
3332.664993943182
 30
338.8460519809347
 40
145.8
100
AcDbArc
 50
90.0
 51
180.0
  0
ARC
  5
6DD
330
767
100
AcDbEntity
  8
CS-BARC
100
AcDbCircle
 10
2290.754887385293
 20
3332.664993943182
 30
338.8460519809347
 40
64.15200000000002
100
AcDbArc
 50
90.0
 51
180.0
  0
LINE
  5
6DE
330
767
100
AcDbEntity
  8
CS-DIML
100
AcDbLine
 10
7723.688108853997
 20
2482.416216082871
 30
338.8460519809347
 11
7723.688108853997
 21
718.7121783811598
 31
338.8460519809347
  0
LINE
  5
6DF
330
767
100
AcDbEntity
  8
CS-BARC
100
AcDbLine
 10
5491.520817507058
 20
3332.664993949701
 30
338.8460519809347
 11
5491.520817507058
 21
1858.75834120065
 31
338.8460519809347
  0
LINE
  5
6E0
330
767
100
AcDbEntity
  8
CS-BARC
100
AcDbLine
 10
5415.704817511141
 20
3332.664993949701
 30
338.8460519809347
 11
5415.704817511141
 21
1858.759020363912
 31
338.8460519809347
  0
LINE
  5
6E1
330
767
100
AcDbEntity
  8
CS-BARC
100
AcDbLine
 10
5015.70481751114
 20
1794.607020364143
 30
338.8460519809347
 11
5351.552817504853
 21
1794.607020364143
 31
338.8460519809347
  0
LINE
  5
6E2
330
767
100
AcDbEntity
  8
CS-BARC
100
AcDbLine
 10
5015.70481751114
 20
1712.959020366892
 30
338.8460519809347
 11
5345.721497053279
 21
1712.959020365495
 31
338.8460519809347
  0
LINE
  5
6E3
330
767
100
AcDbEntity
  8
CS-BARC
100
AcDbLine
 10
5015.70481751114
 20
1794.607020364143
 30
338.8460519809347
 11
5015.70481751114
 21
1712.959020366892
 31
338.8460519809347
  0
ARC
  5
6E4
330
767
100
AcDbEntity
  8
CS-BARC
100
AcDbCircle
 10
5345.720817510039
 20
1858.759020363912
 30
338.8460519809347
 40
145.8
100
AcDbArc
 50
270.0
 51
0.0
  0
ARC
  5
6E5
330
767
100
AcDbEntity
  8
CS-BARC
100
AcDbCircle
 10
5351.552817504853
 20
1858.759020363912
 30
338.8460519809347
 40
64.15200000000002
100
AcDbArc
 50
270.0
 51
0.0
  0
LINE
  5
6E6
330
767
100
AcDbEntity
  8
CS-DIML
100
AcDbLine
 10
7870.636269630864
 20
2849.953722793144
 30
338.8460519809347
 11
7580.543525727465
 21
2376.454194762744
 31
338.8460519809347
  0
LINE
  5
6E7
330
767
100
AcDbEntity
  8
CS-DIML
100
AcDbLine
 10
7580.543525727465
 20
2376.454194762744
 30
338.8460519809347
 11
7723.688108853997
 21
2482.416216082871
 31
338.8460519809347
  0
LINE
  5
6E8
330
767
100
AcDbEntity
  8
CS-DIML
100
AcDbLine
 10
7723.688108853997
 20
2708.97930689063
 30
338.8460519809347
 11
7870.636269630864
 21
2849.953722793144
 31
338.8460519809347
  0
ARC
  5
6E9
330
767
100
AcDbEntity
  8
CS-BARC
100
AcDbCircle
 10
5345.720817510039
 20
3332.664993949701
 30
338.8460519809347
 40
145.8
100
AcDbArc
 50
0.0
 51
90.0
  0
ARC
  5
6EA
330
767
100
AcDbEntity
  8
CS-BARC
100
AcDbCircle
 10
5351.552817504853
 20
3332.664993949701
 30
338.8460519809347
 40
64.15200000000002
100
AcDbArc
 50
0.0
 51
90.0
  0
LINE
  5
6EB
330
767
100
AcDbEntity
  8
CS-DIML
100
AcDbLine
 10
7723.688108853997
 20
3659.605646682904
 30
338.8460519809347
 11
7723.688108853997
 21
2708.97930689063
 31
338.8460519809347
  0
ENDBLK
  5
64A
330
767
100
AcDbEntity
  8
0
100
AcDbBlockEnd
  0
ENDSEC
  0
SECTION
  2
ENTITIES
  0
INSERT
  5
6EC
330
720
100
AcDbEntity
  8
0
100
AcDbBlockReference
  2
BLOCK_SHEAR_DETAIL
 10
0.0
 20
0.0
 30
0.0
  0
ENDSEC
  0
SECTION
  2
OBJECTS
  0
DICTIONARY
  5
70C
330
0
100
AcDbDictionary
281
     1
  3
ACAD_COLOR
350
71B
  3
ACAD_GROUP
350
70D
  3
ACAD_LAYOUT
350
719
  3
ACAD_MATERIAL
350
71A
  3
ACAD_MLINESTYLE
350
716
  3
ACAD_PLOTSETTINGS
350
718
  3
ACAD_PLOTSTYLENAME
350
70E
  0
DICTIONARY
  5
71B
102
{ACAD_REACTORS
330
70C
102
}
330
70C
100
AcDbDictionary
281
     1
  0
DICTIONARY
  5
70D
102
{ACAD_REACTORS
330
70C
102
}
330
70C
100
AcDbDictionary
281
     1
  0
DICTIONARY
  5
719
102
{ACAD_REACTORS
330
70C
102
}
330
70C
100
AcDbDictionary
281
     1
  3
Model
350
723
  3
배치1
350
71F
  0
DICTIONARY
  5
71A
102
{ACAD_REACTORS
330
70C
102
}
330
70C
100
AcDbDictionary
281
     1
  0
DICTIONARY
  5
716
102
{ACAD_REACTORS
330
70C
102
}
330
70C
100
AcDbDictionary
281
     1
  3
Standard
350
717
  0
DICTIONARY
  5
718
102
{ACAD_REACTORS
330
70C
102
}
330
70C
100
AcDbDictionary
281
     1
  0
ACDBDICTIONARYWDFLT
  5
70E
102
{ACAD_REACTORS
330
70C
102
}
330
70C
100
AcDbDictionary
281
     1
  3
Normal
350
70F
100
AcDbDictionaryWithDefault
340
70F
  0
LAYOUT
  5
723
102
{ACAD_REACTORS
330
719
102
}
330
719
100
AcDbPlotSettings
  1

  2
Samsung CLX-92x1 93x1 Series
  4

  6

 40
0.0
 41
0.0
 42
0.0
 43
0.0
 44
0.0
 45
0.0
 46
0.0
 47
0.0
 48
0.0
 49
0.0
140
0.0
141
0.0
142
1.0
143
1.0
 70
  1712
 72
     0
 73
     0
 74
     0
  7

 75
     0
147
1.0
 76
     0
 77
     2
 78
   300
148
0.0
149
0.0
100
AcDbLayout
  1
Model
 70
     1
 71
     0
 10
0.0
 20
0.0
 11
12.0
 21
9.0
 12
0.0
 22
0.0
 32
0.0
 14
0.0
 24
0.0
 34
0.0
 15
0.0
 25
0.0
 35
0.0
146
0.0
 13
0.0
 23
0.0
 33
0.0
 16
1.0
 26
0.0
 36
0.0
 17
0.0
 27
1.0
 37
0.0
 76
     0
330
720
  0
LAYOUT
  5
71F
102
{ACAD_REACTORS
330
719
102
}
330
719
100
AcDbPlotSettings
  1

  2
Samsung CLX-92x1 93x1 Series
  4

  6

 40
0.0
 41
0.0
 42
0.0
 43
0.0
 44
0.0
 45
0.0
 46
0.0
 47
0.0
 48
0.0
 49
0.0
140
0.0
141
0.0
142
1.0
143
1.0
 70
   688
 72
     0
 73
     0
 74
     5
  7

 75
    16
147
1.0
 76
     0
 77
     2
 78
   300
148
0.0
149
0.0
100
AcDbLayout
  1
배치1
 70
     1
 71
     1
 10
0.0
 20
0.0
 11
12.0
 21
9.0
 12
0.0
 22
0.0
 32
0.0
 14
0.0
 24
0.0
 34
0.0
 15
0.0
 25
0.0
 35
0.0
146
0.0
 13
0.0
 23
0.0
 33
0.0
 16
1.0
 26
0.0
 36
0.0
 17
0.0
 27
1.0
 37
0.0
 76
     0
330
71C
  0
MLINESTYLE
  5
717
102
{ACAD_REACTORS
330
716
102
}
330
716
100
AcDbMlineStyle
  2
STANDARD
 70
     0
  3

 62
   256
 51
90.0
 52
90.0
 71
     2
 49
0.5
 62
   256
  6
BYLAYER
 49
-0.5
 62
   256
  6
BYLAYER
  0
ACDBPLACEHOLDER
  5
70F
102
{ACAD_REACTORS
330
70E
102
}
330
70E
  0
ENDSEC
  0
EOF
